<?xml version="1.0" encoding="UTF-8"?>
<svg id="Layer_2" data-name="Layer 2" xmlns="http://www.w3.org/2000/svg" xmlns:xlink="http://www.w3.org/1999/xlink" viewBox="0 0 242.01 76.78">
  <defs>
    <style>
      .cls-1 {
        mask: url(#mask);
      }

      .cls-2 {
        fill: #4169e1;
      }

      .cls-2, .cls-3, .cls-4 {
        stroke-width: 0px;
      }

      .cls-3 {
        fill: #fff;
      }

      .cls-4 {
        fill: #db4437;
      }
    </style>
    <mask id="mask" x="0" y="0" width="68.81" height="76.78" maskUnits="userSpaceOnUse">
      <g id="mask0_455_305" data-name="mask0 455 305">
        <path class="cls-3" d="M68.81,0H.01v76.77h68.79V0Z"/>
      </g>
    </mask>
  </defs>
  <g id="Layer_1-2" data-name="Layer 1">
    <g>
      <path class="cls-2" d="M94.25,40.2c-.75-.45-1.62-.68-2.61-.68s-1.87.23-2.63.68c-.75.44-1.34,1.09-1.76,1.93-.42.84-.63,1.86-.63,3.07s.21,2.24.63,3.11c.43.86,1.02,1.52,1.76,1.99.76.46,1.64.7,2.63.7s1.87-.23,2.61-.7c.76-.46,1.35-1.13,1.76-1.99.43-.87.65-1.91.65-3.11s-.22-2.22-.65-3.07c-.42-.85-1.01-1.49-1.76-1.93ZM93.44,47.86c-.44.66-1.04.99-1.8.99s-1.36-.33-1.8-.99c-.44-.66-.66-1.54-.66-2.65s.22-1.98.66-2.6c.44-.62,1.04-.94,1.8-.94s1.36.31,1.8.94c.44.62.66,1.49.66,2.6s-.22,1.99-.66,2.65Z"/>
      <path class="cls-2" d="M122.67,39.72l-3.46,11.07h2.55l.68-2.63h3.38l.68,2.63h2.65l-3.46-11.07h-3.01ZM122.94,46.21l.27-1.02c.16-.55.31-1.14.44-1.75.15-.62.29-1.23.42-1.82h.07c.15.58.29,1.18.44,1.8.16.62.31,1.21.46,1.76l.25,1.02h-2.36Z"/>
      <path class="cls-2" d="M138.06,45.19c.36-.53.54-1.21.54-2.02,0-.88-.19-1.57-.58-2.07-.39-.5-.9-.85-1.55-1.05-.65-.22-1.36-.32-2.14-.32h-3.99v11.07h2.5v-3.99h1.38l2.12,3.99h2.8l-2.51-4.43c.6-.26,1.08-.65,1.43-1.17ZM135.63,44.41c-.34.27-.84.41-1.49.41h-1.29v-3.11h1.29c.66,0,1.15.11,1.49.32.35.22.53.59.53,1.14s-.18.96-.53,1.24Z"/>
      <path class="cls-2" d="M107.35,39.72h-2.75l-3.29,4.53h-.07v-4.53h-2.49v11.07h2.49v-2.97l1.29-1.7,2.7,4.67h2.73l-3.96-6.66,3.34-4.41Z"/>
      <path class="cls-2" d="M115.49,43.98h-3.82v-4.26h-2.5v11.07h2.5v-4.62h3.82v4.62h2.51v-11.07h-2.51v4.26Z"/>
      <path class="cls-2" d="M83.03,40.06c-.66-.23-1.39-.34-2.21-.34h-3.8v11.07h2.5v-3.75h1.38c.78,0,1.5-.13,2.16-.39.66-.27,1.18-.68,1.58-1.24.4-.55.59-1.26.59-2.12s-.2-1.6-.59-2.12c-.4-.52-.93-.89-1.6-1.1h0ZM80.74,45.05h-1.22v-3.35h1.16c.68,0,1.2.12,1.56.36.36.24.54.65.54,1.22,0,1.18-.68,1.76-2.04,1.76h0Z"/>
      <path class="cls-2" d="M185.85,44.88c-.16.6-.31,1.19-.44,1.76-.14.58-.28,1.17-.44,1.78h-.07c-.17-.61-.32-1.21-.46-1.78-.12-.58-.27-1.17-.44-1.76l-1.32-5.16h-2.65l3.35,11.07h3.01l3.33-11.07h-2.55l-1.31,5.16h0Z"/>
      <path class="cls-2" d="M215.73,44.56l-1.43-.58c-.48-.19-.88-.37-1.21-.54-.32-.17-.48-.43-.48-.77,0-.32.12-.56.37-.73.26-.18.6-.27,1.04-.27s.84.08,1.21.24c.36.15.73.36,1.09.65l1.27-1.58c-.48-.48-1.03-.84-1.66-1.09-.63-.25-1.27-.37-1.9-.37-.77,0-1.45.15-2.05.44-.59.29-1.05.69-1.39,1.19-.33.5-.49,1.05-.49,1.66,0,.53.11.99.32,1.39.21.4.49.73.83,1,.34.26.7.47,1.07.63l1.45.61c.49.2.87.39,1.15.56.29.16.44.41.44.77,0,.33-.13.59-.39.78-.25.19-.63.29-1.15.29-.45,0-.92-.11-1.41-.32-.49-.22-.93-.49-1.32-.83l-1.43,1.71c.57.52,1.21.92,1.92,1.19.73.27,1.45.41,2.17.41.88,0,1.64-.16,2.26-.48.62-.32,1.1-.74,1.43-1.26.33-.52.49-1.09.49-1.7,0-.78-.2-1.41-.59-1.88-.4-.48-.93-.85-1.6-1.12h0Z"/>
      <path class="cls-2" d="M207.9,45.19c.36-.53.54-1.21.54-2.02,0-.88-.19-1.57-.58-2.07-.39-.5-.9-.85-1.54-1.05-.65-.22-1.36-.32-2.14-.32h-3.99v11.07h2.5v-3.99h1.38l2.12,3.99h2.8l-2.51-4.43c.6-.26,1.08-.65,1.43-1.17ZM205.47,44.41c-.34.27-.84.41-1.49.41h-1.29v-3.11h1.29c.66,0,1.15.11,1.49.32.35.22.53.59.53,1.14s-.18.96-.53,1.24Z"/>
      <path class="cls-2" d="M222.3,39.72h-2.5v11.07h2.5v-11.07Z"/>
      <path class="cls-2" d="M239.17,39.72l-1,2.55c-.15.42-.3.83-.46,1.22-.16.38-.32.79-.48,1.22h-.07c-.15-.43-.29-.84-.44-1.22-.15-.4-.3-.8-.46-1.22l-.99-2.55h-11.26v2.1h3.04v8.97h2.51v-8.97h3.04v-2.07l3.33,7.1v3.94h2.5v-3.94l3.34-7.13h-2.61Z"/>
      <path class="cls-2" d="M160.08,45.92c0,1.09-.17,1.85-.51,2.27-.34.43-.82.65-1.44.65s-1.1-.22-1.43-.65c-.33-.43-.49-1.19-.49-2.27v-6.2h-2.51v5.94c0,1.86.38,3.21,1.14,4.06.76.85,1.86,1.27,3.29,1.27s2.51-.43,3.24-1.27c.75-.85,1.12-2.2,1.12-4.06v-5.94h-2.41v6.2h0Z"/>
      <path class="cls-2" d="M171.35,43.63c0,.66.04,1.35.12,2.07.08.72.14,1.38.19,1.97h-.07l-1.08-2.44-2.89-5.5h-2.56v11.07h2.38v-3.92c0-.66-.04-1.34-.12-2.04-.07-.7-.13-1.36-.19-1.97h.07l1.09,2.41,2.89,5.52h2.56v-11.07h-2.38v3.91h0Z"/>
      <path class="cls-2" d="M193.38,46.14h3.77v-2.09h-3.77v-2.23h4.43v-2.1h-6.93v11.07h7.1v-2.1h-4.6v-2.55Z"/>
      <path class="cls-2" d="M142.68,39.72l-3.46,11.07h2.55l.68-2.63h3.38l.68,2.63h2.65l-3.46-11.07h-3.01ZM142.96,46.21l.27-1.02c.16-.55.31-1.14.44-1.75.15-.62.29-1.23.43-1.82h.07c.15.58.29,1.18.44,1.8.16.62.31,1.21.46,1.76l.26,1.02h-2.36Z"/>
      <path class="cls-2" d="M178.84,39.72h-2.5v11.07h2.5v-11.07Z"/>
      <path class="cls-2" d="M127.75,20.41h-34.16c-.23-.63-.53-1.24-.91-1.82-.43-.68-.91-1.28-1.43-1.82-.53-.54-1.07-.96-1.63-1.26-.56-.32-1.08-.48-1.56-.48s-.82.14-1.05.44c-.23.28-.34.62-.34,1.04v.19c0,.07,0,.12.02.17.54.12,1.13.37,1.78.75.64.36,1.24.8,1.8,1.33.49.45.87.95,1.15,1.49h-14.48c-.04.11-.08.26-.11.44-.03.17-.04.31-.04.44,0,.3.06.54.19.7.11.15.31.23.58.23h1.15v3.25c0,1.44.39,2.51,1.18,3.23.8.7,1.85,1.06,3.17,1.06.86,0,1.6-.14,2.22-.41.1-.05.19-.1.28-.15v3.09c0,.37.11.65.32.83.21.18.58.27,1.09.27.23,0,.43-.02.6-.06.19-.03.34-.06.47-.08v-11.02h3.35v10.07c0,.37.11.65.32.83.21.18.58.27,1.09.27.23,0,.43-.02.6-.06.19-.03.34-.06.47-.08v-11.02h4.81c.32.24.58.55.78.93.23.39.34.81.34,1.26,0,.62-.2,1.13-.6,1.51-.4.37-.96.56-1.67.56-.23,0-.45-.01-.66-.04-.2-.03-.38-.06-.53-.08-.1.11-.19.26-.28.46-.07.18-.11.38-.11.6,0,.36.11.63.32.81.21.17.52.26.92.29.31.91.77,1.73,1.37,2.47s1.3,1.31,2.1,1.74c.81.43,1.67.64,2.59.64.49,0,.86-.11,1.11-.33.26-.23.39-.57.39-.99,0-.23-.04-.45-.11-.64-.74-.06-1.45-.21-2.14-.46-.68-.25-1.3-.6-1.84-1.06-.53-.46-.95-1-1.26-1.64.9-.21,1.61-.62,2.14-1.24.53-.62.79-1.38.79-2.28,0-.62-.14-1.18-.41-1.68-.17-.32-.37-.59-.6-.83h7.74v5.6c-.14.13-.32.24-.53.35-.34.15-.72.23-1.13.23-.57,0-1.03-.13-1.37-.39-.33-.26-.49-.61-.49-1.06s.14-.81.43-1.06c.3-.25.66-.37,1.09-.37.36,0,.65.04.9.12.1-.1.18-.21.24-.35.07-.14.11-.29.11-.46,0-.33-.15-.6-.45-.81-.3-.22-.73-.33-1.31-.33s-1.11.12-1.62.35c-.5.23-.9.59-1.22,1.06-.31.46-.47,1.04-.47,1.74s.18,1.31.53,1.8c.36.5.82.88,1.39,1.16.57.26,1.18.39,1.84.39.76,0,1.37-.1,1.84-.29.08-.03.16-.08.24-.12v2.5c0,.37.11.65.32.83.21.18.58.27,1.11.27.21,0,.41-.02.58-.06.18-.03.34-.06.47-.08v-11.02h6.21c.18.24.32.5.42.79.16.39.24.79.24,1.2,0,.66-.21,1.21-.64,1.64-.43.43-1.13.64-2.12.64-.27,0-.54-.01-.79-.04-.24-.04-.44-.08-.6-.12-.1.14-.19.3-.28.48-.07.18-.11.37-.11.58,0,.35.11.62.34.83.24.19.59.3,1.05.31.39,1.11.83,2.02,1.33,2.74.5.72,1.01,1.26,1.54,1.62.54.35,1.06.52,1.56.52s.89-.15,1.13-.44c.24-.3.37-.68.39-1.12-.81-.39-1.54-.87-2.18-1.45-.63-.59-1.16-1.27-1.6-2.03.67-.1,1.27-.3,1.8-.62.54-.33.97-.76,1.28-1.28.31-.54.47-1.16.47-1.86,0-.57-.1-1.08-.3-1.53-.12-.3-.27-.58-.44-.83h3.51v10.07c0,.37.11.65.32.83.21.18.58.27,1.09.27.23,0,.43-.02.6-.06.19-.03.34-.06.47-.08v-11.02h2.14c.04-.11.08-.26.11-.44.04-.18.06-.33.06-.46,0-.61-.26-.91-.77-.91h0ZM84.82,27.58c-.37.14-.78.21-1.22.21-.78,0-1.39-.17-1.82-.52-.41-.36-.62-1-.62-1.93v-3.13h4.38v4.99c-.19.14-.43.26-.73.37Z"/>
      <path class="cls-2" d="M151.1,20.55h-14.33c-.09-.14-.15-.3-.21-.49-.07-.27-.11-.55-.11-.82,0-.7.29-1.25.88-1.66.58-.42,1.43-.64,2.54-.64.93,0,1.84.11,2.71.33.88.22,1.68.52,2.43.9.76.38,1.39.83,1.9,1.35.42,0,.77-.09,1.05-.27.28-.19.42-.44.42-.76,0-.25-.22-.56-.66-.94-.42-.38-1.03-.76-1.82-1.15-.77-.4-1.69-.72-2.76-.98-1.05-.27-2.19-.41-3.43-.41s-2.39.17-3.26.51c-.86.33-1.51.79-1.95,1.37-.44.59-.66,1.26-.66,2.01,0,.34.04.68.13,1,.08.25.16.46.25.64h-2.22c-.04.11-.08.25-.11.43-.03.16-.04.31-.04.43,0,.3.07.53.2.7.12.15.31.23.59.23h1.64v9.96c0,.37.11.64.33.82.22.18.59.27,1.12.27.23,0,.44-.02.61-.06.19-.03.35-.05.48-.08v-10.9h10.18v6.09c-.21.29-.53.56-.96.81-.44.25-.97.37-1.6.37-.73,0-1.31-.16-1.75-.49-.44-.34-.66-.81-.66-1.39,0-.55.19-1,.57-1.35.39-.37.99-.55,1.77-.55.23,0,.46.02.68.06.22.04.42.09.59.14.09-.11.15-.24.2-.39.06-.16.09-.32.09-.47,0-.38-.18-.69-.55-.92-.36-.23-.92-.35-1.66-.35-.83,0-1.57.16-2.23.47-.64.3-1.15.74-1.53,1.31-.37.56-.55,1.22-.55,1.99,0,.85.2,1.56.61,2.15.42.57.98,1.01,1.68,1.31.71.29,1.5.43,2.36.43.7,0,1.29-.08,1.77-.25.46-.15.84-.36,1.16-.61v1.59c0,.37.1.64.31.82.22.18.6.27,1.14.27.23,0,.44-.02.61-.06.19-.03.34-.05.46-.08v-10.9h2.21c.04-.11.08-.25.11-.43.03-.18.04-.33.04-.45,0-.6-.26-.9-.79-.9Z"/>
      <path class="cls-2" d="M158.27,20.51c-.61-.32-1.29-.48-2.07-.48s-1.42.14-2,.42c-.56.28-1,.66-1.32,1.15-.3.47-.45,1.03-.45,1.67,0,.52.1.96.29,1.32.19.35.43.62.72.82.3.18.62.27.95.27.29,0,.54-.08.74-.23.21-.15.34-.35.41-.59-.19-.18-.36-.38-.5-.61-.12-.22-.19-.52-.19-.88,0-.4.12-.73.37-.96.26-.25.59-.38.97-.38.44,0,.81.16,1.12.48s.46.78.46,1.38c0,.98-.35,1.76-1.05,2.36-.7.6-1.67.9-2.89.9-.28,0-.55-.02-.83-.06-.26-.04-.5-.1-.72-.17-.11.13-.21.29-.29.48-.07.18-.1.38-.1.59,0,.4.14.7.41.9.21.15.53.24.96.28.45.76.93,1.46,1.44,2.09.54.66,1.09,1.17,1.65,1.55.58.38,1.14.57,1.69.57.44,0,.78-.13,1.03-.38.25-.27.37-.59.37-.96,0-.07,0-.14-.02-.21,0-.07,0-.15-.02-.23-.52-.2-1.07-.45-1.63-.75-.55-.32-1.1-.69-1.63-1.11-.27-.21-.53-.44-.77-.67.69-.1,1.33-.27,1.91-.52.92-.4,1.65-.99,2.17-1.76.52-.78.78-1.74.78-2.87,0-.8-.18-1.48-.54-2.05-.34-.59-.82-1.04-1.43-1.36Z"/>
      <path class="cls-2" d="M241.23,20.53h-64.61c-.09-.14-.15-.3-.21-.49-.07-.27-.11-.54-.11-.82,0-.69.29-1.24.87-1.65.58-.42,1.42-.63,2.52-.63.93,0,1.82.11,2.69.33.87.22,1.67.52,2.41.9.75.38,1.38.83,1.89,1.35.42,0,.77-.09,1.04-.27.27-.19.41-.44.41-.75,0-.24-.22-.56-.65-.94-.42-.38-1.02-.76-1.8-1.14-.77-.39-1.68-.72-2.73-.98-1.04-.27-2.18-.41-3.4-.41s-2.36.17-3.23.51c-.85.33-1.5.78-1.93,1.37-.43.58-.65,1.25-.65,2,0,.34.04.67.13,1,.08.25.16.46.24.63h-13.69c-.04.11-.09.25-.13.43-.03.16-.04.31-.04.43,0,.3.06.53.17.69.13.15.33.22.61.22h7.24v6.07c-.2.29-.52.56-.96.81-.43.24-.96.37-1.58.37-.72,0-1.3-.16-1.74-.49-.43-.34-.65-.8-.65-1.39,0-.54.19-.99.56-1.35.39-.37.98-.55,1.76-.55.23,0,.46.02.67.06.23.04.43.09.59.14.09-.11.15-.24.2-.39.06-.16.09-.32.09-.47,0-.38-.18-.69-.54-.92-.36-.23-.91-.35-1.65-.35-.82,0-1.56.16-2.21.47-.64.3-1.14.73-1.52,1.31-.36.56-.54,1.22-.54,1.98,0,.84.21,1.56.63,2.14.42.57.98,1.01,1.67,1.31.71.29,1.48.43,2.32.43.7,0,1.28-.08,1.76-.24.45-.15.83-.35,1.15-.61v1.59c0,.37.1.64.3.82.22.18.59.27,1.13.27.23,0,.43-.02.61-.06.19-.03.34-.05.46-.08v-10.85h3.4v9.91c0,.37.11.64.33.82.22.18.59.27,1.11.27.23,0,.43-.02.61-.06.19-.03.35-.05.48-.08v-10.85h10.09v6.07c-.2.29-.52.56-.95.81-.43.24-.96.37-1.58.37-.72,0-1.3-.16-1.74-.49-.43-.34-.65-.8-.65-1.39,0-.54.19-.99.56-1.35.39-.37.98-.55,1.76-.55.23,0,.46.02.67.06s.41.09.59.14c.09-.11.15-.24.2-.39.06-.16.09-.32.09-.47,0-.38-.18-.69-.54-.92-.36-.23-.91-.35-1.65-.35-.82,0-1.56.16-2.21.47-.64.3-1.14.73-1.52,1.31-.36.56-.54,1.22-.54,1.98,0,.84.2,1.56.61,2.14.42.57.98,1.01,1.67,1.31.71.29,1.49.43,2.34.43.69,0,1.28-.08,1.76-.24.45-.15.83-.35,1.15-.61v1.59c0,.37.1.64.3.82.22.18.59.27,1.13.27.23,0,.43-.02.61-.06.19-.03.34-.05.46-.08v-10.85h7.33v1.33h-1.82c-.87,0-1.56.21-2.06.63-.51.41-.76.95-.76,1.63,0,.5.17.93.5,1.29.33.34.69.56,1.06.67-.39.16-.71.41-.95.75-.25.34-.37.71-.37,1.1,0,.84.41,1.52,1.24,2.02.82.5,2,.75,3.54.75,1.04,0,2.05-.16,3.04-.49.47-.16.91-.36,1.3-.59v.81c0,.37.11.64.32.82.22.18.59.27,1.11.27.23,0,.43-.02.61-.06.19-.03.35-.05.48-.08v-10.85h3.38v9.91c0,.37.11.64.33.82.22.18.58.27,1.11.27.23,0,.43-.02.61-.06.19-.03.35-.05.48-.08v-10.85h13.8v2.25c-.29-.06-.62-.09-.98-.09-.85,0-1.6.19-2.26.57-.2.11-.39.24-.56.38-.31-.22-.65-.42-1.04-.59-.55-.24-1.21-.37-2-.37s-1.46.16-2.12.49c-.66.33-1.21.8-1.63,1.43-.42.63-.63,1.41-.63,2.35,0,.73.14,1.39.41,1.98.27.57.63,1.05,1.06,1.45.45.39.93.7,1.45.92.54.2,1.05.31,1.54.31.52,0,.9-.12,1.13-.37.23-.26.35-.57.35-.94v-.18c0-.07,0-.14-.02-.2-.53-.05-1.06-.19-1.58-.41-.51-.23-.93-.56-1.26-.98-.33-.42-.5-.95-.5-1.59s.21-1.22.63-1.65c.42-.44.99-.65,1.71-.65.38,0,.72.06,1.04.18.15.06.29.12.4.19-.27.57-.4,1.2-.4,1.89,0,.37.11.65.32.84.22.19.54.29.95.29.2,0,.4-.01.61-.04.2-.03.38-.07.54-.14,0-1.14.2-1.96.59-2.45.4-.5.98-.75,1.74-.75.19,0,.35.02.5.05v5.77c0,.37.11.64.32.82.22.18.59.27,1.13.27.23,0,.43-.02.61-.06.19-.03.34-.05.46-.08v-10.85h4.47c.36.16.64.38.82.65.2.27.3.6.3.98,0,.52-.21.93-.63,1.24-.4.3-1.06.48-1.97.55-.2.01-.34.09-.41.22-.07.12-.11.27-.11.45,0,.31.07.69.22,1.12.15.44.35.84.63,1.22.46.68,1.1,1.23,1.91,1.65.81.41,1.75.61,2.82.61.81,0,1.5-.12,2.08-.35.38-.15.72-.34,1.02-.57v2.12c0,.37.1.64.3.82.22.18.59.27,1.13.27.23,0,.43-.02.61-.06.19-.03.34-.05.46-.08v-10.85h2.19c.04-.11.08-.25.11-.43.03-.18.04-.33.04-.45,0-.6-.26-.9-.78-.9h0ZM200.43,29.91c-.46.23-.98.41-1.54.55-.56.14-1.13.2-1.71.2-.62,0-1.11-.05-1.45-.16-.35-.11-.59-.24-.74-.41-.14-.16-.22-.34-.22-.53,0-.24.11-.45.32-.61.23-.18.53-.27.89-.27h2.6c.04-.1.08-.22.11-.37.03-.16.04-.32.04-.47,0-.14-.01-.29-.04-.45-.01-.16-.05-.3-.11-.41h-2.84c-.38,0-.68-.07-.91-.22-.22-.16-.32-.37-.32-.61,0-.27.11-.48.32-.61.23-.14.49-.2.76-.2h2.36c.66,0,1-.33,1-1v-2.04h2.34v7.02c-.24.21-.53.41-.87.59ZM236.76,28.28c-.29.23-.64.42-1.04.57-.4.14-.87.2-1.39.2-.88,0-1.6-.19-2.15-.57-.55-.39-.92-.87-1.11-1.43.59-.1,1.12-.26,1.58-.49.48-.23.85-.54,1.13-.92.29-.39.43-.87.43-1.43,0-.33-.07-.63-.19-.9-.12-.27-.28-.51-.48-.71-.11-.12-.22-.22-.33-.31h3.95v5.61c-.12.12-.26.24-.41.37Z"/>
      <g class="cls-1">
        <g>
          <path class="cls-4" d="M34.36,74.61c-.26-.99-.52-1.98-.66-3-.02-.17-.07-.39-.19-.47-.48-.36-.43-.86-.43-1.35.02-2.26-.6-4.47-1.79-6.38-.31-.52-.63-1.04-.94-1.56-.43-.7-.86-1.38-1.47-1.94-.51-.47-1.17-.34-1.44.3-.22.52-.17,1.06-.07,1.59.22,1.05.39,2.12.89,3.09.07.13.26.37-.07.45-.41.1-1.23-.4-1.35-.83-.22-.73-.53-1.44-.91-2.1-.22-.41-.47-.88-1.09-.79-.12.02-.18-.07-.23-.17-.3-.52-.59-.99-1.12-1.38-.46-.33-1.04-.7-1.24-1.36-.07-.22-.34-.39-.55-.54-.43-.3-.84-.1-.95.41-.19.86.07,1.66.34,2.45.51,1.53,1.14,3.02,1.62,4.56.4,1.29,1.22,2.15,2.38,2.75,1.03.52,1.99,1.15,2.86,1.9.38.33.73.69,1.05,1.09.2.26.29.46-.15.59-.31.09-.51.31-.41.6.12,1.39.36,2.69.4,4.01,0,.19.18.33.31.21.27-.24.59-.15.88-.22,1.3-.28,2.59-.55,3.94-.43.25.02.42-.19.43-.44.02-.35.05-.71-.03-1.02h0ZM25.06,62.19c.12-.08.24.01.3.11.5.72.87,1.54,1.09,2.39-.48,0-.69-.21-.81-.55-.19-.55-.4-1.1-.6-1.66-.03-.1-.08-.23.02-.29ZM24.63,62.84c.09.01.12.1.16.18,0,.08-.03.14-.11.14-.13,0-.15-.12-.17-.21-.02-.09.05-.12.12-.11ZM22.85,60.33s.08-.07.1-.06c.16.07.19.19.23.33.07.17.11.36.11.56-.19-.15-.21-.31-.28-.5-.07-.12-.19-.17-.16-.33h0,0ZM25.44,67.98c-1.32-.68-2.1-1.69-2.49-3.1-.29-1.05-.76-2.05-1.14-3.07-.08-.23-.43-.55.1-.72.04-.01.06-.16.05-.24-.04-.34-.1-.69-.16-1.03-.03-.19-.1-.37-.34-.19-.26.19-.24,0-.26-.16-.01-.05-.01-.1,0-.15.05-.22-.09-.56.2-.64.29-.07.37.26.47.47.62,1.26,1.18,2.54,1.7,3.85.42,1.06,1.21,1.71,2.28,2.03.33.1.64.32.93.4.62.17,1.22.52,1.89.47.36-.03.21-.33.14-.52-.35-1.03-.72-2.06-.93-3.14-.1-.52-.24-1.05-.07-1.59.03-.12.07-.23.13-.34.04-.07.1-.12.17-.15.07-.03.15-.03.23,0,.22.07.09.23.05.35-.15.57-.2,1.11.23,1.6.2.23.57.29.79.07.12-.12.09-.26-.05-.28-.8-.16-.72-.71-.59-1.29.06-.01.12,0,.17.03.05.03.09.07.12.13,1.16,1.81,2.47,3.52,3.08,5.64.42,1.47.45,2.98.59,4.48.02.23-.08.33-.29.41-.81.3-1.66.33-2.5.46-.17.02-.25-.07-.33-.2-1.02-1.63-2.55-2.69-4.22-3.54h0ZM32.15,72.68c.24-.01.18.21.23.33.02.15-.03.27-.18.27-.24.01-.19-.21-.23-.34-.01-.03-.02-.06-.01-.09,0-.03.01-.06.03-.09.02-.03.04-.05.07-.06.03-.02.05-.02.09-.02h.01,0ZM31.81,72.07c0-.12,0-.26.18-.25.22.01.18.22.23.34.02.18-.08.22-.22.21-.21,0-.19-.17-.2-.3h.01,0ZM31.4,72.89c.28-.03.3.17.31.36.02.29-.23.23-.39.28-.25.03-.22-.14-.24-.29-.05-.25.1-.32.31-.35h.01,0ZM31.03,72.31c.07-.13,0-.4.26-.35.22.05.17.31.21.48.04.19-.14.21-.28.21-.24-.02-.22-.18-.19-.35h0ZM29.8,74.63c-.2,0-.25-.14-.25-.31,0-.17.04-.31.34-.3.16.01.14.21.16.37.02.16-.09.25-.25.24h0ZM28.96,72.4c.13.03.14.13.14.24,0,.07-.02.14-.1.14-.13,0-.17-.09-.18-.2v-.06s.02-.04.03-.05c.01-.02.03-.03.05-.04.02,0,.04-.02.06-.02h0ZM28.89,73.5c0-.12-.07-.3.14-.32.13-.01.16.1.17.21,0,.12.08.28-.1.35-.17,0-.2-.12-.2-.24h0ZM29.11,74.5c-.14.02-.14-.12-.14-.22-.01-.09-.03-.22.1-.24.16-.02.13.12.14.21-.02.09.03.23-.11.24h0ZM29.65,72.48c.09,0,.18.03.19.13.02.13-.08.16-.19.17-.02,0-.04,0-.06,0-.02,0-.04-.02-.05-.03-.02-.02-.03-.03-.03-.05,0-.02-.01-.04,0-.06,0-.09.05-.16.16-.15ZM29.74,73.1c.34-.03.22.24.21.38-.02.16-.11.33-.33.16-.06-.2-.25-.43.11-.54h0ZM29.81,75.72c-.34-.01-.25-.26-.26-.45-.03-.24.09-.38.32-.37.34.02.25.31.28.52.04.28-.13.32-.35.31h0ZM30.48,72.04c.29-.03.13.21.19.29,0,.19.06.38-.19.39-.22,0-.24-.16-.23-.32,0-.17.03-.33.23-.35ZM30.53,73.01c.25.01.23.2.25.37.02.19-.07.3-.26.29-.27-.02-.17-.26-.21-.4-.05-.17.05-.25.22-.26h0ZM30.34,74.21c-.02-.21.1-.27.28-.28.24,0,.21.19.22.33.03.2-.1.28-.34.28-.18,0-.15-.19-.17-.33h0ZM30.77,75.59c-.4,0-.22-.34-.31-.51-.03-.27.14-.32.31-.3.34.04.25.36.3.56.05.2-.16.24-.31.25h0ZM31.13,74.04c-.04-.32.26-.28.43-.31.33-.07.17.27.29.36-.03.33-.29.31-.47.33-.26.02-.24-.23-.26-.38h0ZM31.74,75.4c-.47.05-.35-.33-.41-.53-.09-.34.26-.29.41-.29.37-.01.31.36.36.57.07.32-.26.18-.38.25h0ZM32.12,73.85c-.05-.18-.01-.3.16-.35.28-.01.24.21.29.36.08.21-.04.28-.22.3-.26.03-.2-.18-.24-.31h0ZM32.63,75.2c-.33-.04-.25-.37-.34-.57-.09-.18.09-.26.23-.26.4,0,.2.37.31.51.01.19-.02.35-.2.33h0,0ZM32.92,71.71c-.04-.15.07-.21.18-.24.18.02.21.13.22.25.03.18-.1.26-.23.28-.22.02-.15-.18-.17-.29ZM33.1,72.64c-.05-.15.09-.19.23-.25.14.03.15.17.17.3.02.12.02.29-.17.29-.22,0-.19-.21-.23-.34h0ZM33.27,73.59c0-.13,0-.25.17-.26.21-.02.26.12.29.29.02.17-.05.22-.19.21-.2.03-.27-.07-.28-.24h0ZM33.62,74.61c-.16.02-.19-.12-.2-.24-.02-.21.15-.25.3-.26.15,0,.14.16.18.26,0,.19-.16.22-.28.23h0Z"/>
          <path class="cls-4" d="M40.06,62.28s0,.02.02.03c0,0,.02.01.03.02l-.05-.04ZM39.89,62.12c.05.05.11.1.17.16-.03-.07,0-.21-.17-.16ZM40.06,62.28s0,.02.02.03c0,0,.02.01.03.02l-.05-.04ZM40.06,62.28s0,.02.02.03c0,0,.02.01.03.02l-.05-.04ZM39.89,62.12c.05.05.11.1.17.16-.03-.07,0-.21-.17-.16ZM39.89,62.12c.05.05.11.1.17.16-.03-.07,0-.21-.17-.16ZM40.06,62.28s0,.02.02.03c0,0,.02.01.03.02l-.05-.04ZM40.06,62.28s0,.02.02.03c0,0,.02.01.03.02l-.05-.04ZM39.89,62.12c.05.05.11.1.17.16-.03-.07,0-.21-.17-.16ZM39.89,62.12c.05.05.11.1.17.16-.03-.07,0-.21-.17-.16ZM40.06,62.28s0,.02.02.03c0,0,.02.01.03.02l-.05-.04ZM40.06,62.28s0,.02.02.03c0,0,.02.01.03.02l-.05-.04ZM39.89,62.12c.05.05.11.1.17.16-.03-.07,0-.21-.17-.16ZM39.89,62.12c.05.05.11.1.17.16-.03-.07,0-.21-.17-.16ZM40.06,62.28s0,.02.02.03c0,0,.02.01.03.02l-.05-.04ZM40.06,62.28s0,.02.02.03c0,0,.02.01.03.02l-.05-.04ZM39.89,62.12c.05.05.11.1.17.16-.03-.07,0-.21-.17-.16ZM39.89,62.12c.05.05.11.1.17.16-.03-.07,0-.21-.17-.16ZM40.06,62.28s0,.02.02.03c0,0,.02.01.03.02l-.05-.04ZM40.06,62.28s0,.02.02.03c0,0,.02.01.03.02l-.05-.04ZM39.89,62.12c.05.05.11.1.17.16-.03-.07,0-.21-.17-.16ZM39.89,62.12c.05.05.11.1.17.16-.03-.07,0-.21-.17-.16ZM40.06,62.28s0,.02.02.03c0,0,.02.01.03.02l-.05-.04ZM40.06,62.28s0,.02.02.03c0,0,.02.01.03.02l-.05-.04ZM39.89,62.12c.05.05.11.1.17.16-.03-.07,0-.21-.17-.16ZM39.89,62.12c.05.05.11.1.17.16-.03-.07,0-.21-.17-.16ZM40.06,62.28s0,.02.02.03c0,0,.02.01.03.02l-.05-.04ZM40.06,62.28s0,.02.02.03c0,0,.02.01.03.02l-.05-.04ZM39.89,62.12c.05.05.11.1.17.16-.03-.07,0-.21-.17-.16ZM39.89,62.12c.05.05.11.1.17.16-.03-.07,0-.21-.17-.16ZM40.06,62.28s0,.02.02.03c0,0,.02.01.03.02l-.05-.04ZM40.06,62.28s0,.02.02.03c0,0,.02.01.03.02l-.05-.04ZM39.89,62.12c.05.05.11.1.17.16-.03-.07,0-.21-.17-.16ZM39.89,62.12c.05.05.11.1.17.16-.03-.07,0-.21-.17-.16ZM40.06,62.28s0,.02.02.03c0,0,.02.01.03.02l-.05-.04ZM40.06,62.28s0,.02.02.03c0,0,.02.01.03.02l-.05-.04ZM39.89,62.12c.05.05.11.1.17.16-.03-.07,0-.21-.17-.16ZM39.89,62.12c.05.05.11.1.17.16-.03-.07,0-.21-.17-.16ZM40.06,62.28s0,.02.02.03c0,0,.02.01.03.02l-.05-.04ZM40.06,62.28s0,.02.02.03c0,0,.02.01.03.02l-.05-.04ZM39.89,62.12c.05.05.11.1.17.16-.03-.07,0-.21-.17-.16ZM39.89,62.12c.05.05.11.1.17.16-.03-.07,0-.21-.17-.16ZM40.06,62.28s0,.02.02.03c0,0,.02.01.03.02l-.05-.04ZM40.06,62.28s0,.02.02.03c0,0,.02.01.03.02l-.05-.04ZM39.89,62.12c.05.05.11.1.17.16-.03-.07,0-.21-.17-.16ZM39.89,62.12c.05.05.11.1.17.16-.03-.07,0-.21-.17-.16ZM40.06,62.28s0,.02.02.03c0,0,.02.01.03.02l-.05-.04ZM40.06,62.28s0,.02.02.03c0,0,.02.01.03.02l-.05-.04ZM39.89,62.12c.05.05.11.1.17.16-.03-.07,0-.21-.17-.16ZM39.89,62.12c.05.05.11.1.17.16-.03-.07,0-.21-.17-.16ZM40.06,62.28s0,.02.02.03c0,0,.02.01.03.02l-.05-.04ZM40.06,62.28s0,.02.02.03c0,0,.02.01.03.02l-.05-.04ZM39.89,62.12c.05.05.11.1.17.16-.03-.07,0-.21-.17-.16ZM39.89,62.12c.05.05.11.1.17.16-.03-.07,0-.21-.17-.16ZM40.06,62.28s0,.02.02.03c0,0,.02.01.03.02l-.05-.04ZM40.06,62.28s0,.02.02.03c0,0,.02.01.03.02l-.05-.04ZM39.89,62.12c.05.05.11.1.17.16-.03-.07,0-.21-.17-.16ZM39.89,62.12c.05.05.11.1.17.16-.03-.07,0-.21-.17-.16ZM40.06,62.28s0,.02.02.03c0,0,.02.01.03.02l-.05-.04ZM40.06,62.28s0,.02.02.03c0,0,.02.01.03.02l-.05-.04ZM39.89,62.12c.05.05.11.1.17.16-.03-.07,0-.21-.17-.16ZM39.89,62.12c.05.05.11.1.17.16-.03-.07,0-.21-.17-.16ZM40.06,62.28s0,.02.02.03c0,0,.02.01.03.02l-.05-.04ZM40.06,62.28s0,.02.02.03c0,0,.02.01.03.02l-.05-.04ZM39.89,62.12c.05.05.11.1.17.16-.03-.07,0-.21-.17-.16ZM39.89,62.12c.05.05.11.1.17.16-.03-.07,0-.21-.17-.16ZM40.06,62.28s0,.02.02.03c0,0,.02.01.03.02l-.05-.04ZM40.06,62.28s0,.02.02.03c0,0,.02.01.03.02l-.05-.04ZM39.89,62.12c.05.05.11.1.17.16-.03-.07,0-.21-.17-.16ZM39.89,62.12c.05.05.11.1.17.16-.03-.07,0-.21-.17-.16ZM40.06,62.28s0,.02.02.03c0,0,.02.01.03.02l-.05-.04ZM40.06,62.28s0,.02.02.03c0,0,.02.01.03.02l-.05-.04ZM39.89,62.12c.05.05.11.1.17.16-.03-.07,0-.21-.17-.16ZM39.89,62.12c.05.05.11.1.17.16-.03-.07,0-.21-.17-.16ZM40.06,62.28s0,.02.02.03c0,0,.02.01.03.02l-.05-.04ZM40.06,62.28s0,.02.02.03c0,0,.02.01.03.02l-.05-.04ZM39.89,62.12c.05.05.11.1.17.16-.03-.07,0-.21-.17-.16ZM39.89,62.12c.05.05.11.1.17.16-.03-.07,0-.21-.17-.16ZM40.06,62.28s0,.02.02.03c0,0,.02.01.03.02l-.05-.04ZM40.06,62.28s0,.02.02.03c0,0,.02.01.03.02l-.05-.04ZM39.89,62.12c.05.05.11.1.17.16-.03-.07,0-.21-.17-.16ZM39.89,62.12c.05.05.11.1.17.16-.03-.07,0-.21-.17-.16ZM40.06,62.28s0,.02.02.03c0,0,.02.01.03.02l-.05-.04ZM40.06,62.28s0,.02.02.03c0,0,.02.01.03.02l-.05-.04ZM39.89,62.12c.05.05.11.1.17.16-.03-.07,0-.21-.17-.16ZM39.89,62.12c.05.05.11.1.17.16-.03-.07,0-.21-.17-.16ZM40.06,62.28s0,.02.02.03c0,0,.02.01.03.02l-.05-.04ZM40.06,62.28s0,.02.02.03c0,0,.02.01.03.02l-.05-.04ZM39.89,62.12c.05.05.11.1.17.16-.03-.07,0-.21-.17-.16ZM39.89,62.12c.05.05.11.1.17.16-.03-.07,0-.21-.17-.16ZM40.06,62.28s0,.02.02.03c0,0,.02.01.03.02l-.05-.04ZM40.06,62.28s0,.02.02.03c0,0,.02.01.03.02l-.05-.04ZM39.89,62.12c.05.05.11.1.17.16-.03-.07,0-.21-.17-.16ZM39.89,62.12c.05.05.11.1.17.16-.03-.07,0-.21-.17-.16ZM40.06,62.28s0,.02.02.03c0,0,.02.01.03.02l-.05-.04ZM40.06,62.28s0,.02.02.03c0,0,.02.01.03.02l-.05-.04ZM39.89,62.12c.05.05.11.1.17.16-.03-.07,0-.21-.17-.16ZM39.89,62.12c.05.05.11.1.17.16-.03-.07,0-.21-.17-.16ZM40.06,62.28s0,.02.02.03c0,0,.02.01.03.02l-.05-.04ZM40.06,62.28s0,.02.02.03c0,0,.02.01.03.02l-.05-.04ZM39.89,62.12c.05.05.11.1.17.16-.03-.07,0-.21-.17-.16ZM39.89,62.12c.05.05.11.1.17.16-.03-.07,0-.21-.17-.16ZM40.06,62.28s0,.02.02.03c0,0,.02.01.03.02l-.05-.04ZM40.06,62.28s0,.02.02.03c0,0,.02.01.03.02l-.05-.04ZM39.89,62.12c.05.05.11.1.17.16-.03-.07,0-.21-.17-.16ZM39.89,62.12c.05.05.11.1.17.16-.03-.07,0-.21-.17-.16ZM40.06,62.28s0,.02.02.03c0,0,.02.01.03.02l-.05-.04ZM40.06,62.28s0,.02.02.03c0,0,.02.01.03.02l-.05-.04ZM39.89,62.12c.05.05.11.1.17.16-.03-.07,0-.21-.17-.16ZM39.89,62.12c.05.05.11.1.17.16-.03-.07,0-.21-.17-.16ZM40.06,62.28s0,.02.02.03c0,0,.02.01.03.02l-.05-.04ZM40.06,62.28s0,.02.02.03c0,0,.02.01.03.02l-.05-.04ZM39.89,62.12c.05.05.11.1.17.16-.03-.07,0-.21-.17-.16ZM39.89,62.12c.05.05.11.1.17.16-.03-.07,0-.21-.17-.16ZM40.06,62.28s0,.02.02.03c0,0,.02.01.03.02l-.05-.04ZM40.06,62.28s0,.02.02.03c0,0,.02.01.03.02l-.05-.04ZM39.89,62.12c.05.05.11.1.17.16-.03-.07,0-.21-.17-.16ZM39.89,62.12c.05.05.11.1.17.16-.03-.07,0-.21-.17-.16ZM40.06,62.28s0,.02.02.03c0,0,.02.01.03.02l-.05-.04ZM40.06,62.28s0,.02.02.03c0,0,.02.01.03.02l-.05-.04ZM39.89,62.12c.05.05.11.1.17.16-.03-.07,0-.21-.17-.16ZM39.89,62.12c.05.05.11.1.17.16-.03-.07,0-.21-.17-.16ZM40.06,62.28s0,.02.02.03c0,0,.02.01.03.02l-.05-.04ZM40.06,62.28s0,.02.02.03c0,0,.02.01.03.02l-.05-.04ZM39.89,62.12c.05.05.11.1.17.16-.03-.07,0-.21-.17-.16ZM39.89,62.12c.05.05.11.1.17.16-.03-.07,0-.21-.17-.16ZM40.06,62.28s0,.02.02.03c0,0,.02.01.03.02l-.05-.04ZM40.06,62.28s0,.02.02.03c0,0,.02.01.03.02l-.05-.04ZM39.89,62.12c.05.05.11.1.17.16-.03-.07,0-.21-.17-.16ZM39.89,62.12c.05.05.11.1.17.16-.03-.07,0-.21-.17-.16ZM40.06,62.28s0,.02.02.03c0,0,.02.01.03.02l-.05-.04ZM40.06,62.28s0,.02.02.03c0,0,.02.01.03.02l-.05-.04ZM39.89,62.12c.05.05.11.1.17.16-.03-.07,0-.21-.17-.16ZM39.89,62.12c.05.05.11.1.17.16-.03-.07,0-.21-.17-.16ZM40.06,62.28s0,.02.02.03c0,0,.02.01.03.02l-.05-.04ZM40.06,62.28s0,.02.02.03c0,0,.02.01.03.02l-.05-.04ZM39.89,62.12c.05.05.11.1.17.16-.03-.07,0-.21-.17-.16ZM39.89,62.12c.05.05.11.1.17.16-.03-.07,0-.21-.17-.16ZM40.06,62.28s0,.02.02.03c0,0,.02.01.03.02l-.05-.04ZM40.06,62.28s0,.02.02.03c0,0,.02.01.03.02l-.05-.04ZM39.89,62.12c.05.05.11.1.17.16-.03-.07,0-.21-.17-.16ZM39.89,62.12c.05.05.11.1.17.16-.03-.07,0-.21-.17-.16ZM40.06,62.28s0,.02.02.03c0,0,.02.01.03.02l-.05-.04ZM40.06,62.28s0,.02.02.03c0,0,.02.01.03.02l-.05-.04ZM39.89,62.12c.05.05.11.1.17.16-.03-.07,0-.21-.17-.16ZM39.89,62.12c.05.05.11.1.17.16-.03-.07,0-.21-.17-.16ZM40.06,62.28s0,.02.02.03c0,0,.02.01.03.02l-.05-.04ZM40.06,62.28s0,.02.02.03c0,0,.02.01.03.02l-.05-.04ZM39.89,62.12c.05.05.11.1.17.16-.03-.07,0-.21-.17-.16ZM39.89,62.12c.05.05.11.1.17.16-.03-.07,0-.21-.17-.16ZM40.06,62.28s0,.02.02.03c0,0,.02.01.03.02l-.05-.04ZM40.06,62.28s0,.02.02.03c0,0,.02.01.03.02l-.05-.04ZM39.89,62.12c.05.05.11.1.17.16-.03-.07,0-.21-.17-.16ZM39.89,62.12c.05.05.11.1.17.16-.03-.07,0-.21-.17-.16ZM40.06,62.28s0,.02.02.03c0,0,.02.01.03.02l-.05-.04ZM40.06,62.28s0,.02.02.03c0,0,.02.01.03.02l-.05-.04ZM39.89,62.12c.05.05.11.1.17.16-.03-.07,0-.21-.17-.16ZM39.89,62.12c.05.05.11.1.17.16-.03-.07,0-.21-.17-.16ZM40.06,62.28s0,.02.02.03c0,0,.02.01.03.02l-.05-.04ZM40.06,62.28s0,.02.02.03c0,0,.02.01.03.02l-.05-.04ZM39.89,62.12c.05.05.11.1.17.16-.03-.07,0-.21-.17-.16ZM48.44,57.95c-.13-.09-.28-.15-.43-.16-.15-.02-.31,0-.46.07-.15.05-.29.13-.41.23-.57.55-1.03,1.23-1.74,1.64-.24.14-.28.65-.75.41-.04-.02-.19.1-.24.18-.38.59-.77,1.17-1.11,1.78-.41.73-.57,1.57-.79,2.37s-.81.99-1.5,1.22c.04-.29.14-.57.3-.81.46-.84.85-1.71,1.03-2.66.14-.65.04-1.33-.3-1.91-.25-.42-.92-.7-1.13-.47-.23.26-.51.47-.7.77-.8,1.3-1.57,2.63-2.46,3.87-.86,1.2-1.31,2.45-1.16,3.94.08.72,0,1.46.02,2.19,0,.23-.03.38-.31.44-.4.09-.66.35-.45.79.09.19-.03.22-.13.32-.52.57-.37,1.34.33,1.65.15.07.22.14.13.26-.29.4-.12.87-.22,1.29-.05.21,0,.4.24.44.24.04.26-.18.34-.33.06-.13.07-.27.03-.4-.09-.59.31-.96.87-.79.96.29,1.91.38,2.85-.03.26-.12.38-.03.41.26.05.29.11.58.19.86.04.16.12.33.31.29.22-.05.15-.23.1-.38-.01-.03-.03-.06-.04-.1-.14-.68-.39-1.36.52-1.78.52-.24-.07-.54-.12-.8-.05-.27-.27-.08-.42-.03-.72.22-1.4.56-2.2.56-1,0-1.9-.33-2.82-.63-.03,0-.05-.02-.07-.03-.02-.02-.04-.03-.05-.06-.01-.02-.02-.05-.02-.07,0-.03,0-.05.01-.08.05-.23.19-.06.28-.03.29.11.61.16.9.24.72.21,1.45.09,2.17.12.83.04,1.52-.27,2.24-.54.17-.07.22-.24.05-.3-.74-.24-.24-.59-.06-.84.63-.86,1.45-1.54,2.27-2.22,1.1-.91,1.9-2.01,2.32-3.39.69-2.22,1.42-4.43,2.12-6.65.07-.23.3-.5.02-.71h0ZM41.05,73.23c-1.29,1.22-3.51,1.02-4.58-.07,1.52.47,3.04.74,4.58.07ZM45.17,60.97s.13.03.12.04c-.03.27-.09.52-.34.7-.03-.03-.05-.04-.05-.05-.05-.28.09-.49.26-.69h0ZM44.66,60.72c-.45,1.15-.54,2.42-1.24,3.48.36-1.18.38-2.48,1.24-3.48ZM36.62,71.76c.52-.14.88-.05,1.16.3-.36-.04-.74-.05-1.16-.3ZM47.87,58.66c-.74.51-.6,1.22-.64,1.99-.03.81-.41,1.6-.66,2.4-.36,1.12-.65,2.28-1.22,3.32-.52.91-1.22,1.7-2.08,2.3-.77.56-1.45,1.23-1.91,2.04-.47.81-1.19,1.02-2.01,1.03-.74.02-1.43-.25-2.13-.47-.07-.02-.13-.05-.17-.11-.04-.06-.05-.13-.04-.2.21-1.28.12-2.57.15-3.85.02-.59.21-1.17.55-1.66.74-1.11,1.47-2.23,2.2-3.34.24-.44.53-.85.88-1.21.13.57.05.95-.5,1.11-.17.05-.23.13-.16.3.85,0,1.31-.66,1.04-1.49-.05-.17-.27-.36,0-.48.23-.1.42.09.51.26.34.64.32,1.32.14,2.02-.28,1.07-.86,2-1.33,2.99-.09.19-.29.4-.06.62.2.19.44.1.63,0,.65-.37,1.39-.54,1.99-1.01,1.11-.88,1.8-2.06,2.39-3.3.47-.97.76-2.02,1.44-2.88.2-.26.45-.49.72-.67.1-.06.24-.11.33.02.03.05.04.1.03.16,0,.05-.04.1-.08.14ZM40.11,62.32l-.05-.04s0,.02.02.03c0,0,.02.01.03.02h0ZM39.9,62.12c.06.05.11.1.17.16-.04-.07-.02-.21-.17-.16h0ZM39.9,62.12c.06.05.11.1.17.16-.04-.07-.02-.21-.17-.16h0ZM40.07,62.28s0,.02.02.03c0,0,.02.01.03.02l-.05-.04ZM40.07,62.28s0,.02.02.03c0,0,.02.01.03.02l-.05-.04ZM39.9,62.12c.06.05.11.1.17.16-.04-.07-.02-.21-.17-.16h0ZM39.9,62.12c.06.05.11.1.17.16-.04-.07-.02-.21-.17-.16h0ZM40.07,62.28s0,.02.02.03c0,0,.02.01.03.02l-.05-.04ZM40.07,62.28s0,.02.02.03c0,0,.02.01.03.02l-.05-.04ZM39.9,62.12c.06.05.11.1.17.16-.04-.07-.02-.21-.17-.16h0ZM39.9,62.12c.06.05.11.1.17.16-.04-.07-.02-.21-.17-.16h0ZM40.07,62.28s0,.02.02.03c0,0,.02.01.03.02l-.05-.04ZM40.07,62.28s0,.02.02.03c0,0,.02.01.03.02l-.05-.04ZM39.9,62.12c.06.05.11.1.17.16-.04-.07-.02-.21-.17-.16h0ZM39.9,62.12c.06.05.11.1.17.16-.04-.07-.02-.21-.17-.16h0ZM40.07,62.28s0,.02.02.03c0,0,.02.01.03.02l-.05-.04ZM40.07,62.28s0,.02.02.03c0,0,.02.01.03.02l-.05-.04ZM39.9,62.12c.06.05.11.1.17.16-.04-.07-.02-.21-.17-.16h0ZM39.9,62.12c.06.05.11.1.17.16-.04-.07-.02-.21-.17-.16h0ZM40.07,62.28s0,.02.02.03c0,0,.02.01.03.02l-.05-.04ZM40.07,62.28s0,.02.02.03c0,0,.02.01.03.02l-.05-.04ZM39.9,62.12c.06.05.11.1.17.16-.04-.07-.02-.21-.17-.16h0ZM39.9,62.12c.06.05.11.1.17.16-.04-.07-.02-.21-.17-.16h0ZM40.07,62.28s0,.02.02.03c0,0,.02.01.03.02l-.05-.04ZM40.07,62.28s0,.02.02.03c0,0,.02.01.03.02l-.05-.04ZM39.9,62.12c.06.05.11.1.17.16-.04-.07-.02-.21-.17-.16h0ZM39.9,62.12c.06.05.11.1.17.16-.04-.07-.02-.21-.17-.16h0ZM40.07,62.28s0,.02.02.03c0,0,.02.01.03.02l-.05-.04ZM40.07,62.28s0,.02.02.03c0,0,.02.01.03.02l-.05-.04ZM39.9,62.12c.06.05.11.1.17.16-.04-.07-.02-.21-.17-.16h0ZM39.9,62.12c.06.05.11.1.17.16-.04-.07-.02-.21-.17-.16h0ZM40.07,62.28s0,.02.02.03c0,0,.02.01.03.02l-.05-.04ZM40.07,62.28s0,.02.02.03c0,0,.02.01.03.02l-.05-.04ZM39.9,62.12c.06.05.11.1.17.16-.04-.07-.02-.21-.17-.16h0ZM39.9,62.12c.06.05.11.1.17.16-.04-.07-.02-.21-.17-.16h0ZM40.07,62.28s0,.02.02.03c0,0,.02.01.03.02l-.05-.04ZM40.07,62.28s0,.02.02.03c0,0,.02.01.03.02l-.05-.04ZM39.9,62.12c.06.05.11.1.17.16-.04-.07-.02-.21-.17-.16h0ZM39.9,62.12c.06.05.11.1.17.16-.04-.07-.02-.21-.17-.16h0ZM40.07,62.28s0,.02.02.03c0,0,.02.01.03.02l-.05-.04ZM40.07,62.28s0,.02.02.03c0,0,.02.01.03.02l-.05-.04ZM39.9,62.12c.06.05.11.1.17.16-.04-.07-.02-.21-.17-.16h0ZM39.9,62.12c.06.05.11.1.17.16-.04-.07-.02-.21-.17-.16h0ZM40.07,62.28s0,.02.02.03c0,0,.02.01.03.02l-.05-.04ZM40.07,62.28s0,.02.02.03c0,0,.02.01.03.02l-.05-.04ZM39.9,62.12c.06.05.11.1.17.16-.04-.07-.02-.21-.17-.16h0ZM39.9,62.12c.06.05.11.1.17.16-.04-.07-.02-.21-.17-.16h0ZM40.07,62.28s0,.02.02.03c0,0,.02.01.03.02l-.05-.04ZM40.07,62.28s0,.02.02.03c0,0,.02.01.03.02l-.05-.04ZM39.9,62.12c.06.05.11.1.17.16-.04-.07-.02-.21-.17-.16h0ZM39.9,62.12c.06.05.11.1.17.16-.04-.07-.02-.21-.17-.16h0ZM40.07,62.28s0,.02.02.03c0,0,.02.01.03.02l-.05-.04ZM40.07,62.28s0,.02.02.03c0,0,.02.01.03.02l-.05-.04ZM39.9,62.12c.06.05.11.1.17.16-.04-.07-.02-.21-.17-.16h0ZM39.9,62.12c.06.05.11.1.17.16-.04-.07-.02-.21-.17-.16h0ZM40.07,62.28s0,.02.02.03c0,0,.02.01.03.02l-.05-.04ZM40.07,62.28s0,.02.02.03c0,0,.02.01.03.02l-.05-.04ZM39.9,62.12c.06.05.11.1.17.16-.04-.07-.02-.21-.17-.16h0ZM39.9,62.12c.06.05.11.1.17.16-.04-.07-.02-.21-.17-.16h0ZM40.07,62.28s0,.02.02.03c0,0,.02.01.03.02l-.05-.04ZM40.07,62.28s0,.02.02.03c0,0,.02.01.03.02l-.05-.04ZM39.9,62.12c.06.05.11.1.17.16-.04-.07-.02-.21-.17-.16h0ZM39.9,62.12c.06.05.11.1.17.16-.04-.07-.02-.21-.17-.16h0ZM40.07,62.28s0,.02.02.03c0,0,.02.01.03.02l-.05-.04ZM40.07,62.28s0,.02.02.03c0,0,.02.01.03.02l-.05-.04ZM39.9,62.12c.06.05.11.1.17.16-.04-.07-.02-.21-.17-.16h0ZM39.9,62.12c.06.05.11.1.17.16-.04-.07-.02-.21-.17-.16h0ZM40.07,62.28s0,.02.02.03c0,0,.02.01.03.02l-.05-.04ZM40.07,62.28s0,.02.02.03c0,0,.02.01.03.02l-.05-.04ZM39.9,62.12c.06.05.11.1.17.16-.04-.07-.02-.21-.17-.16h0ZM39.9,62.12c.06.05.11.1.17.16-.04-.07-.02-.21-.17-.16h0ZM40.07,62.28s0,.02.02.03c0,0,.02.01.03.02l-.05-.04ZM40.07,62.28s0,.02.02.03c0,0,.02.01.03.02l-.05-.04ZM39.9,62.12c.06.05.11.1.17.16-.04-.07-.02-.21-.17-.16h0ZM39.9,62.12c.06.05.11.1.17.16-.04-.07-.02-.21-.17-.16h0ZM40.07,62.28s0,.02.02.03c0,0,.02.01.03.02l-.05-.04ZM40.07,62.28s0,.02.02.03c0,0,.02.01.03.02l-.05-.04ZM39.9,62.12c.06.05.11.1.17.16-.04-.07-.02-.21-.17-.16h0ZM39.9,62.12c.06.05.11.1.17.16-.04-.07-.02-.21-.17-.16h0ZM40.07,62.28s0,.02.02.03c0,0,.02.01.03.02l-.05-.04ZM40.07,62.28s0,.02.02.03c0,0,.02.01.03.02l-.05-.04ZM39.9,62.12c.06.05.11.1.17.16-.04-.07-.02-.21-.17-.16h0ZM39.9,62.12c.06.05.11.1.17.16-.04-.07-.02-.21-.17-.16h0ZM40.07,62.28s0,.02.02.03c0,0,.02.01.03.02l-.05-.04ZM40.07,62.28s0,.02.02.03c0,0,.02.01.03.02l-.05-.04ZM39.9,62.12c.06.05.11.1.17.16-.04-.07-.02-.21-.17-.16h0ZM39.9,62.12c.06.05.11.1.17.16-.04-.07-.02-.21-.17-.16h0ZM40.07,62.28s0,.02.02.03c0,0,.02.01.03.02l-.05-.04ZM40.07,62.28s0,.02.02.03c0,0,.02.01.03.02l-.05-.04ZM39.9,62.12c.06.05.11.1.17.16-.04-.07-.02-.21-.17-.16h0ZM39.9,62.12c.06.05.11.1.17.16-.04-.07-.02-.21-.17-.16h0ZM40.07,62.28s0,.02.02.03c0,0,.02.01.03.02l-.05-.04ZM40.07,62.28s0,.02.02.03c0,0,.02.01.03.02l-.05-.04ZM39.9,62.12c.06.05.11.1.17.16-.04-.07-.02-.21-.17-.16h0ZM39.9,62.12c.06.05.11.1.17.16-.04-.07-.02-.21-.17-.16h0ZM40.07,62.28s0,.02.02.03c0,0,.02.01.03.02l-.05-.04ZM40.07,62.28s0,.02.02.03c0,0,.02.01.03.02l-.05-.04ZM39.9,62.12c.06.05.11.1.17.16-.04-.07-.02-.21-.17-.16h0ZM39.9,62.12c.06.05.11.1.17.16-.04-.07-.02-.21-.17-.16h0ZM40.07,62.28s0,.02.02.03c0,0,.02.01.03.02l-.05-.04ZM40.07,62.28s0,.02.02.03c0,0,.02.01.03.02l-.05-.04ZM39.9,62.12c.06.05.11.1.17.16-.04-.07-.02-.21-.17-.16h0ZM39.9,62.12c.06.05.11.1.17.16-.04-.07-.02-.21-.17-.16h0ZM40.07,62.28s0,.02.02.03c0,0,.02.01.03.02l-.05-.04ZM40.07,62.28s0,.02.02.03c0,0,.02.01.03.02l-.05-.04ZM39.9,62.12c.06.05.11.1.17.16-.04-.07-.02-.21-.17-.16h0ZM39.9,62.12c.06.05.11.1.17.16-.04-.07-.02-.21-.17-.16h0ZM40.07,62.28s0,.02.02.03c0,0,.02.01.03.02l-.05-.04ZM40.07,62.28s0,.02.02.03c0,0,.02.01.03.02l-.05-.04ZM39.9,62.12c.06.05.11.1.17.16-.04-.07-.02-.21-.17-.16h0ZM39.9,62.12c.06.05.11.1.17.16-.04-.07-.02-.21-.17-.16h0ZM40.07,62.28s0,.02.02.03c0,0,.02.01.03.02l-.05-.04ZM40.07,62.28s0,.02.02.03c0,0,.02.01.03.02l-.05-.04ZM39.9,62.12c.06.05.11.1.17.16-.04-.07-.02-.21-.17-.16h0ZM39.9,62.12c.06.05.11.1.17.16-.04-.07-.02-.21-.17-.16h0ZM40.07,62.28s0,.02.02.03c0,0,.02.01.03.02l-.05-.04ZM40.07,62.28s0,.02.02.03c0,0,.02.01.03.02l-.05-.04ZM39.9,62.12c.06.05.11.1.17.16-.04-.07-.02-.21-.17-.16h0ZM39.9,62.12c.06.05.11.1.17.16-.04-.07-.02-.21-.17-.16h0ZM40.07,62.28s0,.02.02.03c0,0,.02.01.03.02l-.05-.04ZM40.07,62.28s0,.02.02.03c0,0,.02.01.03.02l-.05-.04ZM39.9,62.12c.06.05.11.1.17.16-.04-.07-.02-.21-.17-.16h0ZM39.9,62.12c.06.05.11.1.17.16-.04-.07-.02-.21-.17-.16h0ZM40.07,62.28s0,.02.02.03c0,0,.02.01.03.02l-.05-.04ZM40.07,62.28s0,.02.02.03c0,0,.02.01.03.02l-.05-.04ZM39.9,62.12c.06.05.11.1.17.16-.04-.07-.02-.21-.17-.16h0ZM39.9,62.12c.06.05.11.1.17.16-.04-.07-.02-.21-.17-.16h0ZM40.07,62.28s0,.02.02.03c0,0,.02.01.03.02l-.05-.04ZM40.07,62.28s0,.02.02.03c0,0,.02.01.03.02l-.05-.04ZM39.9,62.12c.06.05.11.1.17.16-.04-.07-.02-.21-.17-.16h0ZM39.9,62.12c.06.05.11.1.17.16-.04-.07-.02-.21-.17-.16h0ZM40.07,62.28s0,.02.02.03c0,0,.02.01.03.02l-.05-.04ZM40.07,62.28s0,.02.02.03c0,0,.02.01.03.02l-.05-.04ZM39.9,62.12c.06.05.11.1.17.16-.04-.07-.02-.21-.17-.16h0ZM39.9,62.12c.06.05.11.1.17.16-.04-.07-.02-.21-.17-.16h0ZM40.07,62.28s0,.02.02.03c0,0,.02.01.03.02l-.05-.04ZM40.07,62.28s0,.02.02.03c0,0,.02.01.03.02l-.05-.04ZM39.9,62.12c.06.05.11.1.17.16-.04-.07-.02-.21-.17-.16h0ZM39.9,62.12c.06.05.11.1.17.16-.04-.07-.02-.21-.17-.16h0ZM40.07,62.28s0,.02.02.03c0,0,.02.01.03.02l-.05-.04ZM40.07,62.28s0,.02.02.03c0,0,.02.01.03.02l-.05-.04ZM39.9,62.12c.06.05.11.1.17.16-.04-.07-.02-.21-.17-.16h0ZM39.9,62.12c.06.05.11.1.17.16-.04-.07-.02-.21-.17-.16h0ZM40.07,62.28s0,.02.02.03c0,0,.02.01.03.02l-.05-.04ZM40.07,62.28s0,.02.02.03c0,0,.02.01.03.02l-.05-.04ZM39.9,62.12c.06.05.11.1.17.16-.04-.07-.02-.21-.17-.16h0ZM39.9,62.12c.06.05.11.1.17.16-.04-.07-.02-.21-.17-.16h0ZM40.07,62.28s0,.02.02.03c0,0,.02.01.03.02l-.05-.04ZM40.07,62.28s0,.02.02.03c0,0,.02.01.03.02l-.05-.04ZM39.9,62.12c.06.05.11.1.17.16-.04-.07-.02-.21-.17-.16h0ZM39.9,62.12c.06.05.11.1.17.16-.04-.07-.02-.21-.17-.16h0ZM40.07,62.28s0,.02.02.03c0,0,.02.01.03.02l-.05-.04ZM40.07,62.28s0,.02.02.03c0,0,.02.01.03.02l-.05-.04ZM39.9,62.12c.06.05.11.1.17.16-.04-.07-.02-.21-.17-.16h0Z"/>
          <path class="cls-4" d="M18.04,58.62c-.02.48-.42.86-.86.82-.41-.03-.87-.55-.84-.94.03-.42.42-.82.78-.81.45.02.93.51.91.93Z"/>
          <path class="cls-4" d="M8.85,19.83c-.13-.26-.35-.23-.59-.11-.4.19-.83.34-1.24.5-.09.03-.19.09-.28,0s-.02-.18.01-.27c.1-.26.2-.51.31-.76.38-.87.81-1.72,1.3-2.54.11-.19.16-.38-.07-.5-.24-.14-.41,0-.52.21-.09.17-.18.34-.25.52-.1.26-.25.37-.57.26-.53-.18-1.08-.33-1.63-.46-.96-.21-1.59.24-1.59,1.19,0,.48-.16.52-.54.36-.34-.14-.76-.28-.88.16-.12.42.35.5.66.55.98.14,1.9.45,2.83.76.29.09.32.24.21.47-.09.2-.08.51-.48.34-.91-.37-1.87-.58-2.8-.88-.29-.09-.62-.26-.74.15-.14.44.29.41.55.5.26.08.55.13.83.19.68.15,1.33.4,1.98.64.26.09.22.2.2.43-.07.63-.62.92-1,1.29-.29.28-.69.15-.97-.15-.28-.3-.11-.51.18-.7.14-.09.24-.22.16-.41-.09-.21-.26-.26-.45-.22-.28.05-.57.02-.85.03-.68.02-1.28.19-1.68.78-.11.17-.12.33.05.47.03.03.07.05.11.06.04.01.08.02.12.02s.09-.01.12-.03c.04-.02.07-.04.1-.07.12-.11.24-.22.36-.33.11-.09.25-.16.4-.2.15-.03.3-.04.45,0,.27.05.05.34.14.5.05.1.08.21.1.32-.86,0-1.24.23-1.27.81-.02.41-.2.45-.53.33-.31-.11-.65-.13-.74.24-.09.39.29.41.56.45,1.11.15,2.16.52,3.24.78.12.03.38,0,.3.22-.09.26.09.67-.27.75-.31.06-.31.19-.37.4-.09.34-.31.6-.7.57-.41-.03-.83-.18-.97-.57-.14-.38.33-.37.52-.53.04-.03.08-.06.12-.09.22-.24.13-.41-.14-.52-.55-.2-2.01.17-2.39.58-.3.33-.31.66-.02.83.4.24.46-.07.58-.33.04-.08.1-.15.18-.19.08-.05.17-.07.26-.07.28,0,.14.24.19.37.05.17.15.32.27.45.63.57,1.29.91,2.15.43.12-.07.25-.11.28.1.12.72-.16,1.01-.91.89-.84-.13-1.69-.13-2.54-.23-.29-.03-.59,0-.61.33-.02.33.29.33.55.33,1.02.01,2.03.14,3.04.24.15.01.3-.01.31.21,0,.17.09.32.31.3s.28-.21.31-.38c.03-.22.04-.45.05-.67.12-2.59.74-5.07,1.56-7.52.05-.13.04-.33.27-.36.74-.09,1.34-.53,2.06-.7.22-.07.45-.23.31-.52h0,0ZM2.93,24.44c-.16-.05-.3-.14-.42-.25-.11-.12-.19-.26-.24-.41-.05-.16.09-.27.26-.28.26,0,.61.38.6.67-.03.11.02.34-.22.27h0ZM4.66,24.69c-.04.24-.27.14-.41.08-.2-.08-.55.05-.53-.34.03-.33,0-.66-.09-.97.43.09.88.05,1.29-.11,0,.49-.2.9-.27,1.34ZM6.53,19c-.09.23-.26.21-.45.15-.34-.12-.69-.24-1.03-.34-.44-.13-.57-.46-.61-.85-.05-.47.18-.67.78-.62.43.11.97.23,1.5.37.22.06.29.21.2.41-.12.29-.26.58-.38.88h0s0,0,0,0Z"/>
          <path class="cls-4" d="M5.52,32.24c-.78-.05-1.09-.26-.97-1,0-.03,0-.07-.01-.1-.01-.03-.03-.06-.05-.08-.02-.02-.05-.04-.09-.05-.03-.01-.07-.02-.1-.02-.08,0-.15.02-.21.06-.06.05-.1.11-.11.18-.02.11-.03.22-.01.34.06.4-.14.52-.52.56-.9.09-1.79.13-2.69.16-.28,0-.6-.01-.6.33,0,.39.36.34.64.33.09,0,.17-.02.25-.02.86-.07,1.73-.12,2.59-.2.25-.02.37.03.38.29.03.53.07,1.05.11,1.52.09.55-.32.39-.55.44-.31.06-.37-.11-.33-.37.06-.4-.18-.71-.43-.99-.35-.4-1.05-.43-1.56-.12-.49.31-.62.7-.32,1.24.3.52-.04.5-.4.53-.28.03-.57.12-.52.45.05.33.35.27.61.23.95-.15,1.89-.35,2.87-.33.48,0,.84-.02.85.58,0,.19.17.32.39.28.22-.03.24-.2.22-.37,0-.11,0-.22-.02-.33-.14-.38.05-.45.4-.5.93-.12,1.5-.72,1.54-1.56.03-.6-.59-1.42-1.35-1.47h0s0,0,0,0ZM2.33,34.98c-.55-.04-.91-.34-.88-.74.02-.33.27-.37.53-.35.38.02.67.42.64.84-.02.2-.08.31-.29.25h0ZM6.18,33.78c-.08.59-.68,1.03-1.23.92-.15-.03-.17-.13-.19-.24-.04-.44-.11-.88-.12-1.33-.01-.48.38-.38.6-.39.56.05,1.01.6.95,1.05h0Z"/>
          <path class="cls-4" d="M4.52,36.88c-.61-.75-1.6-.64-2.06.2-.15.26-.28.15-.41,0-.12-.15-.04-.29.05-.44.05-.07.06-.15.05-.23-.02-.08-.07-.15-.14-.19-.03-.03-.07-.05-.11-.06-.04-.01-.08-.02-.12-.01-.04,0-.09.02-.12.03-.04.02-.07.05-.1.08-.35.4-.77.75-1.04,1.23-.05.08-.08.18-.08.27s.03.19.1.27c.04.07.11.12.19.15.08.03.16.03.24.02.23-.06.21-.25.24-.42.06-.31.19-.44.49-.16.37.36.8.63,1.34.68.52.03,1-.12,1.31-.48.24-.28.46-.6.17-.95h0ZM3.92,37.34c-.05.31-.38.39-.69.4-.2,0-.31-.06-.28-.28.03-.28.12-.51.47-.48.24.02.54.12.5.36h0Z"/>
          <path class="cls-4" d="M16.13,55.25c-1.77-1.43-3.31-3.08-4.77-4.8-1.55-1.83-2.65-3.92-3.76-6.01-.14-.26-.22-.4.22-.5.64-.14,1.17-.52,1.3-1.2.15-.79-.33-1.32-.93-1.74-.5-.35-1.06-.36-1.59,0-.29.2-.38.07-.48-.2-.35-.91-.53-1.85-.76-2.79-.06-.23-.15-.47-.46-.39-.27.07-.23.33-.18.53.11.45.25.9.35,1.35.03.15.26.39-.11.45-.28.04-.61.31-.78-.18-.26-.71-.87-.93-1.56-1.02-.36-.05-.7.05-.89.4-.19.35-.21.68.05.99.21.24.26.38-.11.5-.2.07-.38.25-.25.5.12.22.33.17.53.11,1.05-.31,2.16-.36,3.22-.66.41-.12.26.34.39.53.12.18.03.28-.19.33-.92.21-1.84.43-2.76.65-.26.06-.59.11-.51.45.08.34.39.26.66.19.81-.23,1.66-.36,2.47-.61.62-.19.67-.13.9.47.14.38.3.75.46,1.12.05.11.21.21-.02.29-.29.11-.52.36-.86.32-.01,0-.01-.07-.02-.11-.07-.79-.4-1.13-1.22-1.24-.55-.07-1.06.14-1.28.56-.23.43-.09.85.22,1.15.28.26.3.41.02.64-.03.02-.06.06-.08.09-.02.03-.03.08-.03.12,0,.04,0,.08.02.12.02.04.04.07.07.1.02.03.05.06.09.09.03.02.07.04.12.04.04,0,.09,0,.13,0,.04,0,.08-.03.12-.05.82-.59,1.92-.54,2.76-1.1.31-.2.55-.17.66.23.06.21.19.41.27.62.06.15.33.3.05.49-.22.15-.41.19-.65-.04-.45-.43-.99-.46-1.33-.08-.18.2-.42.35-.69.41-.5.16-.64.46-.48.94.2.57.62.95,1.17,1.19.31.14.34.25.05.44-.19.13-.32.33-.16.54.19.24.4.11.61-.02.8-.46,1.59-.94,2.45-1.29.3-.12.42-.1.58.16.18.29.02.41-.2.53-.79.41-1.58.82-2.37,1.23-.21.11-.45.23-.28.51.17.28.37.17.6.04.85-.47,1.72-.92,2.57-1.39.19-.1.33-.15.46.05.5.82,1.13,1.55,1.69,2.33.28.4-.22.44-.37.64-.16.21-.29.05-.41-.11-.25-.32-.76-.49-.58-1.03.01-.03-.04-.09-.07-.12-.14-.16-.3-.29-.49-.38-.19-.09-.4-.15-.61-.16-.21-.01-.43.02-.63.09-.2.07-.38.18-.54.32-.47.43-.56,1.19-.18,1.62.11.13.24.26.42.18.22-.09.13-.27.06-.41-.1-.21-.12-.44-.04-.66.12-.36.44-.52.8-.56.26-.03.53.06.62.32.1.31-.2.43-.41.59-.16.11-.28.26-.14.45.14.19.32.14.49.04.24-.12.5-.22.66.06.14.24.06.49-.21.66-.31.21-.62.43-.92.67-.14.12-.25.28-.09.46.16.19.32.15.49.06.09-.05.16-.11.24-.17.75-.56,1.5-1.12,2.25-1.67.09-.07.17-.25.32-.13.21.16.4.35.57.54.16.18-.07.28-.14.41-.03.07-.05.14-.03.21.02.07.06.14.12.18.05.03.09.08.11.13.02.05.03.11.02.16-.01.09-.06.17-.12.23-.07.06-.15.1-.24.12-.22.05-.29-.09-.35-.25-.09-.26-.24-.49-.55-.48-.31.02-.4.3-.5.54-.41,1.04.08,1.9,1.21,2.06.48.07.45.19.19.47-.05.06-.1.13-.16.18-.21.21-.39.47-.09.7.33.25.51-.06.66-.28.41-.58.84-1.15,1.38-1.64.69-.64.69-.64,1.37,0,.19.17.38.4.62.13.21-.24-.04-.38-.22-.53h0,0ZM3.46,40.29c-.45.11-.82-.02-1.09-.37-.09-.11-.16-.25-.09-.4.09-.17.25-.1.33-.11.45,0,.77.16,1,.46.16.21.12.35-.15.42ZM3.85,44.28c-.25-.37-.12-.67.34-.71.41-.03.76.05.97.45.09.15.18.29.29.42-.86.41-1.23.38-1.6-.17h0ZM7.33,43.45c-.19.02-.22-.07-.28-.2-.14-.33-.29-.64-.41-.98-.19-.53.16-.96.74-.91.54.05,1.05.59,1.05,1.12,0,.49-.51.91-1.11.96ZM8.41,47.5c-.64.34-1.27.71-2.19.63-.23-.06-.44-.16-.62-.31-.18-.14-.33-.32-.44-.52-.05-.1-.09-.23.03-.3.12-.07.22,0,.31.09.1.1.19.23.28.34.14.16.31.19.48.07.17-.12.16-.27.06-.43-.06-.1-.12-.19-.18-.29-.07-.13-.16-.29.02-.38.18-.09.32.03.41.18.04.07.05.16.09.22.12.28.32.29.55.13.05-.04.09-.09.15-.13.53-.35,1-.15,1.11.48.01.08.02.15-.07.2h0ZM14.41,54.66c-.48.45-.85,1.04-1.65,1.02-.52-.02-1-.3-1.03-.66,0-.13-.06-.31.22-.2.8.29,1.34.03,1.61-.73.03-.08.01-.19.15-.25.21.19.42.38.63.58.07.07.15.17.06.24h0Z"/>
          <path class="cls-4" d="M33.19,39.21c.38,1.31,1.43,2.3,1.69,3.67.02.07.06.13.12.17.06.04.13.06.2.05.09,0,.17-.04.24-.09.07-.05.12-.13.15-.21.24-.55.52-1.09.73-1.65.4-1.02,1.08-1.97.98-3.16-.13-1.28-.44-2.53-.93-3.71-.31-.78-.77-1.52-.9-2.37-.03-.18-.03-.46-.25-.44s-.4.14-.47.46c-.13.58-.07,1.18-.24,1.75-.05.19-.09.52-.43.25-.34-.27-.48-.12-.66.22-.83,1.66-.74,3.35-.24,5.07h0Z"/>
          <path class="cls-2" d="M36.64,41.46s-.08.09-.1.15c-.02.06-.01.12,0,.18.09.21.28.24.47.26.76.08,1.53.12,2.25.42.14.05.26.12.26.28,0,.07-.02.14-.07.19-.04.05-.1.09-.17.11-.15.05-.3.09-.45.14-1.12.32-2.28.26-3.42.23-1.38-.03-2.75-.12-4.07-.56-.17-.06-.44-.07-.42-.31.02-.22.28-.21.46-.26.74-.18,1.51-.29,2.27-.33.24-.01.43-.09.45-.33.01-.28-.22-.33-.44-.31-1.17.06-2.29.23-3.41.66-.98.38-1,1.07-.48,1.8,1.24,1.76,2.95,2.63,4.85,2.69.78-.05,1.32,0,1.85-.14,1.81-.46,3.34-1.34,4.4-2.93.09-.13.17-.25.1-.43-.14-.32-.35-.61-.62-.83-.27-.22-.59-.38-.93-.45-.76-.16-1.56-.31-2.36-.33-.17,0-.31-.03-.44.1h0Z"/>
          <path class="cls-3" d="M68.08,26.74c-.24.03-.48.08-.72.11-.18.03-.39.1-.46-.19-.05-.24-.16-.47.16-.62.31-.15.62-.33.91-.51.18-.12.36-.29.18-.52-.15-.18-.37-.19-.55,0-.06.07-.13.13-.21.18-.43.27-.81.57-1.35.1-.45-.4-1.09-.09-1.27.5-.17.56.06,1.07.23,1.57.05.15.21.36.41.28.67-.26,1.38-.1,2.17-.3.1-.06.34,0,.56-.05.18-.03.32-.14.31-.33-.01-.24-.2-.24-.37-.22h0ZM66.37,26.89c-.07.18-.3.1-.45.16-.18-.03-.43.19-.52-.15-.1-.37-.25-.75,0-1.12.04-.04.1-.07.16-.08.2-.03.4.05.45.22.09.34.52.56.36.97h0Z"/>
          <path class="cls-3" d="M67.09,36.26c-.63-.11-1.14-.21-1.64-.29-.19-.03-.33-.12-.29-.32.03-.23.22-.21.39-.18.87.2,1.76.3,2.66.31.19,0,.43.02.44.29,0,.26-.19.38-.41.42-.59.12-1.12.38-1.67.58-.09.03-.24.02-.24.16,0,.14.15.12.24.14.43.11.86.17,1.3.19.22,0,.52.05.47.36-.04.31-.31.28-.54.22-.83-.18-1.65-.36-2.48-.53-.17-.03-.34-.09-.36-.29-.02-.21.16-.25.32-.31.57-.22,1.17-.37,1.82-.74h.01Z"/>
          <path class="cls-3" d="M67.77,23.13c.06.49-.02.94-.39,1.29-.13.12-.28.22-.44.07-.16-.15-.16-.31,0-.47.33-.32.32-.7.16-1.09-.11-.26-.31-.36-.58-.33-.31.03-.33.17-.24.44.21.63.07,1.1-.4,1.45-.4.3-.84.28-1.24-.07-.36-.31-.53-.93-.33-1.28.1-.17.24-.35.47-.24.21.1.13.26.04.42-.14.29.03.49.22.67.16.15.32.14.5.02.22-.16.31-.36.23-.63,0-.02,0-.03-.01-.05-.24-.87-.13-1.17.52-1.31.75-.16,1.37.26,1.48,1.01v.09s0,0,0,0Z"/>
          <path class="cls-3" d="M68.68,29.17l.04.31c.12.71.12.71-.59.79-.8.1-1.6-.02-2.4.11-.22.03-.33-.14-.33-.35,0-.44-.03-.87-.1-1.3-.03-.21.03-.38.25-.4.25-.03.37.17.37.37,0,.28.04.54.05.81,0,.27.17.25.37.26.24,0,.23-.15.21-.31-.03-.18-.07-.36-.09-.54-.02-.18,0-.38.23-.43.24-.05.31.12.33.32.02.12.04.24.05.36.06.61.28.74.88.54.18-.06.19-.17.17-.31-.03-.31-.05-.63-.1-.95-.03-.22-.05-.42.22-.46.28-.04.37.17.4.39.03.24.03.49.05.78Z"/>
          <path class="cls-3" d="M60.38,50.79c-.16-.21-.36-.38-.59-.49-.22-.12-.36-.28-.19-.5.15-.2.34-.11.51.03.41.36.84.69,1.31.98.21.12.4.27.64.32.25.05.42.24.33.5-.1.28-.33.26-.55.11-.13-.08-.26-.15-.39-.24-.55-.37-.53-.36-.95.14-.23.28-.18.44.07.63.16.11.31.24.46.37.14.13.33.29.12.49-.18.17-.35.08-.51-.07-.49-.45-1-.88-1.53-1.29-.21-.16-.78-.22-.47-.64.26-.34.54.12.8.23.15.07.28.31.47.12.19-.19.39-.42.46-.72h0Z"/>
          <path class="cls-3" d="M56.34,53.81c-.59-.14-.85.02-.98.62-.22.94.74,2.35,1.69,2.47.09,0,.19,0,.28,0,.39-.03.54-.29.61-.63.17-.81-.76-2.24-1.6-2.45h0ZM57.11,56.14c-.06.05-.14.09-.23.08-.09,0-.16-.04-.22-.1-.41-.35-.68-.82-.79-1.35-.02-.07-.02-.15,0-.22.02-.07.07-.14.13-.19.15-.11.29-.03.41.06.41.3.72.71.9,1.18.07.29-.05.41-.21.53h0Z"/>
          <path class="cls-3" d="M67.9,39.42c-.03.31,0,.64-.17.93-.07.14-.19.24-.33.31-.14.06-.3.08-.45.05-.74-.13-1.47-.37-2.24-.42-.17-.01-.31-.11-.29-.28.02-.21.18-.3.4-.26.61.11,1.22.24,1.84.33.19.03.49.25.56-.11.07-.33.13-.73-.35-.85-.52-.13-1.04-.24-1.56-.34-.24-.05-.51-.09-.46-.38.06-.34.35-.23.59-.18.49.11.98.2,1.47.31.52.1.94.5.98.9h0Z"/>
          <path class="cls-3" d="M55.02,57.82c-.28-.3-.35-.54-.03-.91.3-.35.41-.85.12-1.31-.25-.38-.59-.66-1-.59-.55.06-.79.41-1.08.68-.11.11-.08.28.04.41.39.42.7.9,1.02,1.38.23.35.51.67.76,1.01.12.17.28.27.45.11.2-.17.12-.34-.05-.5-.08-.09-.14-.19-.22-.28h0ZM54.36,56.71c-.09.04-.74-.66-.71-.78.04-.22.24-.31.43-.34.32-.03.51.14.58.48-.04.23-.02.51-.3.64h0Z"/>
          <path class="cls-3" d="M61.47,16.08c.36.02.77.07,1.18.06.52-.02,1.02-.06,1.47-.38.16-.11.36-.17.54-.24.18-.08.38-.06.47.13.09.19-.05.31-.19.41-.02.02-.05.03-.08.05-.96.32-1.47,1.11-2.02,1.88-.14.21-.25.64-.63.36-.36-.27.04-.45.17-.66.18-.29.62-.57.49-.87-.14-.32-.63-.08-.96-.15-.15-.02-.3-.02-.45,0-.18,0-.34-.05-.35-.27,0-.21.14-.28.36-.32h0Z"/>
          <path class="cls-3" d="M67.66,32.49l-1.68-.85c-.12-.06-.27-.09-.33-.23-.02-.05-.02-.1,0-.16.01-.05.04-.1.08-.13.11-.12.24-.1.37-.03.78.47,1.6.86,2.45,1.18.17.06.29.17.26.37,0,.1-.04.19-.11.27-.07.07-.16.12-.26.13-.54.09-1.08.16-1.62.24l-.85.13c-.2.03-.39,0-.4-.24-.02-.24.14-.3.35-.33.57-.07,1.13-.16,1.7-.24l.03-.12h0Z"/>
          <path class="cls-3" d="M63.54,21.11c-.18-.04-.31-.14-.34-.33-.09-.55-.34-1.03-.64-1.49-.12-.19-.22-.41.05-.54.24-.11.41.05.47.28.14.45.38.51.78.29.53-.3,1.18-.38,1.66-.82.17-.16.43-.08.56.12.14.23-.04.38-.22.46-.58.26-1.16.52-1.75.76-.38.14-.63.29-.34.74.17.25,0,.42-.22.53h0Z"/>
          <path class="cls-3" d="M64.03,21.97c-.17.03-.33,0-.36-.21-.03-.23.1-.35.32-.41.69-.19,1.37-.39,2.05-.59.13-.03.26-.09.38-.15.22-.11.46-.19.57.1.09.26-.12.37-.34.44-.57.18-1.15.36-1.73.53-.29.09-.58.19-.89.28h0Z"/>
          <path class="cls-3" d="M65.77,34.05c.56.04,1.16.08,1.77.12.26.01.52,0,.78,0,.2,0,.45.02.43.28-.01.24-.19.35-.45.33-.41-.04-.82-.05-1.22-.09-.44-.03-.88-.09-1.31-.03-.21.02-.38-.06-.39-.28-.01-.22.16-.3.41-.32h0Z"/>
          <path class="cls-3" d="M57.89,53.39c.07-.36.03-.73-.11-1.07-.08-.22-.1-.41.15-.48.25-.07.42.1.4.35-.04.52.27.72.68.86.36.13.7.29,1.05.44.2.09.35.24.23.46-.12.22-.32.19-.52.09-.31-.15-.63-.31-.95-.45-.2-.08-.35-.14-.28.21.02.16.07.3.16.44.08.13.19.25.32.34.19.14.54.28.29.59-.25.31-.45,0-.64-.14-.54-.4-.87-1.02-1.45-1.38-.13-.08-.26-.16-.38-.24-.17-.1-.25-.24-.14-.42.11-.18.28-.18.44-.09.24.15.43.38.74.48h0Z"/>
          <path class="cls-3" d="M64.01,48.81c-.99-.22-1.98-.43-2.98-.66-.18-.04-.29.05-.37.19-.08.15-.03.29.07.42.52.65,1.02,1.31,1.54,1.96.11.13.22.24.35.35.14.12.31.24.48.05.19-.21.02-.34-.14-.48-.49-.45-.49-.58-.08-1.1.19-.24.4-.41.73-.24.1.03.21.05.31.06.17,0,.3-.07.34-.24.04-.19-.1-.28-.25-.32h0ZM62.09,49.52c-.21-.12-.37-.29-.48-.51-.05-.09,0-.2.11-.17.22.06.53,0,.64.23.09.17-.13.31-.27.45Z"/>
          <path class="cls-3" d="M66.66,43.44c-1.04.02-2.09-.03-3.12-.14-.07-.02-.14,0-.2.03-.06.03-.11.08-.14.14-.04.07-.06.14-.05.22,0,.08.04.15.1.2.74.76,1.47,1.52,2.23,2.26.14.14.34.4.57.12.21-.25-.05-.38-.19-.52-.29-.26-.31-.53-.09-.83.07-.11.14-.23.19-.36.16-.33.26-.73.72-.53.24-.01.4-.08.4-.28,0-.24-.2-.34-.41-.33h0ZM65.41,44.17c-.09.19-.18.43-.3.66-.07.12-.19.06-.27-.02-.21-.21-.42-.43-.63-.65-.11-.12-.06-.2.09-.2.31,0,.63,0,.95.02.1,0,.19.02.17.19h0Z"/>
          <path class="cls-3" d="M65.39,46.54c-.32-.02-.64-.05-.95-.07-.24-.02-.42-.09-.47-.39-.05-.35-.32-.53-.66-.62-.76-.18-1.66.55-1.66,1.34,0,.16.04.35.22.35.48,0,.74.38,1.1.58.39.22.76.49,1.16.72.19.11.42.17.55-.09s-.09-.33-.28-.41c-.16-.07-.3-.15-.44-.24-.12-.1-.38-.13-.24-.4.11-.21.23-.32.5-.28.37.06.76.07,1.13.1.18-.03.36-.1.36-.28.01-.19-.14-.28-.33-.3h0ZM63.1,47.05c-.12.05-.73-.31-.76-.43-.04-.16.37-.59.6-.62.27-.05.48.11.52.43-.02.24-.05.51-.36.62h0Z"/>
          <path class="cls-4" d="M68.08,26.74c-.24.03-.48.08-.72.11-.18.03-.39.1-.46-.19-.05-.24-.16-.47.16-.62.31-.15.62-.33.91-.51.18-.12.36-.29.18-.52-.15-.18-.37-.19-.55,0-.06.07-.13.13-.21.18-.43.27-.81.57-1.35.1-.45-.4-1.09-.09-1.27.5-.17.56.06,1.07.23,1.57.05.15.21.36.41.28.67-.26,1.38-.1,2.17-.3.1-.06.34,0,.56-.05.18-.03.32-.14.31-.33-.01-.24-.2-.24-.37-.22h0ZM66.37,26.89c-.07.18-.3.1-.45.16-.18-.03-.43.19-.52-.15-.1-.37-.25-.75,0-1.12.04-.04.1-.07.16-.08.2-.03.4.05.45.22.09.34.52.56.36.97h0Z"/>
          <path class="cls-4" d="M67.09,36.26c-.63-.11-1.14-.21-1.64-.29-.19-.03-.33-.12-.29-.32.03-.23.22-.21.39-.18.87.2,1.76.3,2.66.31.19,0,.43.02.44.29,0,.26-.19.38-.41.42-.59.12-1.12.38-1.67.58-.09.03-.24.02-.24.16,0,.14.15.12.24.14.43.11.86.17,1.3.19.22,0,.52.05.47.36-.04.31-.31.28-.54.22-.83-.18-1.65-.36-2.48-.53-.17-.03-.34-.09-.36-.29-.02-.21.16-.25.32-.31.57-.22,1.17-.37,1.82-.74h.01Z"/>
          <path class="cls-4" d="M67.77,23.13c.06.49-.02.94-.39,1.29-.13.12-.28.22-.44.07-.16-.15-.16-.31,0-.47.33-.32.32-.7.16-1.09-.11-.26-.31-.36-.58-.33-.31.03-.33.17-.24.44.21.63.07,1.1-.4,1.45-.4.3-.84.28-1.24-.07-.36-.31-.53-.93-.33-1.28.1-.17.24-.35.47-.24.21.1.13.26.04.42-.14.29.03.49.22.67.16.15.32.14.5.02.22-.16.31-.36.23-.63,0-.02,0-.03-.01-.05-.24-.87-.13-1.17.52-1.31.75-.16,1.37.26,1.48,1.01v.09s0,0,0,0Z"/>
          <path class="cls-4" d="M68.68,29.17l.04.31c.12.71.12.71-.59.79-.8.1-1.6-.02-2.4.11-.22.03-.33-.14-.33-.35,0-.44-.03-.87-.1-1.3-.03-.21.03-.38.25-.4.25-.03.37.17.37.37,0,.28.04.54.05.81,0,.27.17.25.37.26.24,0,.23-.15.21-.31-.03-.18-.07-.36-.09-.54-.02-.18,0-.38.23-.43.24-.05.31.12.33.32.02.12.04.24.05.36.06.61.28.74.88.54.18-.06.19-.17.17-.31-.03-.31-.05-.63-.1-.95-.03-.22-.05-.42.22-.46.28-.04.37.17.4.39.03.24.03.49.05.78Z"/>
          <path class="cls-4" d="M60.38,50.79c-.16-.21-.36-.38-.59-.49-.22-.12-.36-.28-.19-.5.15-.2.34-.11.51.03.41.36.84.69,1.31.98.21.12.4.27.64.32.25.05.42.24.33.5-.1.28-.33.26-.55.11-.13-.08-.26-.15-.39-.24-.55-.37-.53-.36-.95.14-.23.28-.18.44.07.63.16.11.31.24.46.37.14.13.33.29.12.49-.18.17-.35.08-.51-.07-.49-.45-1-.88-1.53-1.29-.21-.16-.78-.22-.47-.64.26-.34.54.12.8.23.15.07.28.31.47.12.19-.19.39-.42.46-.72h0Z"/>
          <path class="cls-4" d="M56.34,53.81c-.59-.14-.85.02-.98.62-.22.94.74,2.35,1.69,2.47.09,0,.19,0,.28,0,.39-.03.54-.29.61-.63.17-.81-.76-2.24-1.6-2.45h0ZM57.11,56.14c-.06.05-.14.09-.23.08-.09,0-.16-.04-.22-.1-.41-.35-.68-.82-.79-1.35-.02-.07-.02-.15,0-.22.02-.07.07-.14.13-.19.15-.11.29-.03.41.06.41.3.72.71.9,1.18.07.29-.05.41-.21.53h0Z"/>
          <path class="cls-4" d="M67.9,39.42c-.03.31,0,.64-.17.93-.07.14-.19.24-.33.31-.14.06-.3.08-.45.05-.74-.13-1.47-.37-2.24-.42-.17-.01-.31-.11-.29-.28.02-.21.18-.3.4-.26.61.11,1.22.24,1.84.33.19.03.49.25.56-.11.07-.33.13-.73-.35-.85-.52-.13-1.03-.24-1.56-.34-.24-.05-.51-.09-.46-.38.06-.34.35-.23.59-.18.49.11.98.2,1.47.31.52.1.94.5.98.9h0Z"/>
          <path class="cls-4" d="M55.02,57.82c-.28-.3-.35-.54-.03-.91.3-.35.41-.85.12-1.31-.25-.38-.59-.66-1-.59-.55.06-.79.41-1.08.68-.11.11-.08.28.04.41.39.42.7.9,1.02,1.38.23.35.51.67.76,1.01.12.17.28.27.45.11.2-.17.12-.34-.05-.5-.08-.09-.14-.19-.22-.28h0ZM54.36,56.71c-.09.04-.74-.66-.71-.78.04-.22.24-.31.43-.34.32-.03.51.14.58.48-.04.23-.02.51-.3.64h0Z"/>
          <path class="cls-4" d="M61.47,16.08c.36.02.77.07,1.18.06.52-.02,1.02-.06,1.47-.38.16-.11.36-.17.54-.24.18-.08.38-.06.47.13.09.19-.05.31-.19.41-.02.02-.05.03-.08.05-.96.32-1.47,1.11-2.02,1.88-.14.21-.25.64-.63.36-.36-.27.04-.45.17-.66.18-.29.62-.57.49-.87-.14-.32-.63-.08-.96-.15-.15-.02-.3-.02-.45,0-.18,0-.34-.05-.35-.27,0-.21.14-.28.36-.32h0Z"/>
          <path class="cls-4" d="M67.65,32.49l-1.68-.85c-.12-.06-.27-.09-.33-.23-.02-.05-.02-.1,0-.16.01-.05.04-.1.08-.13.11-.12.24-.1.37-.03.78.47,1.6.86,2.45,1.18.17.06.29.17.26.37,0,.1-.04.19-.11.27-.07.07-.16.12-.26.13-.54.09-1.08.16-1.62.24l-.85.13c-.2.03-.39,0-.4-.24-.02-.24.14-.3.35-.33.57-.07,1.13-.16,1.7-.24l.03-.12h0Z"/>
          <path class="cls-4" d="M63.54,21.11c-.18-.04-.31-.14-.34-.33-.09-.55-.34-1.03-.64-1.49-.12-.19-.22-.41.05-.54.24-.11.41.05.47.28.14.45.38.51.78.29.53-.3,1.18-.38,1.66-.82.17-.16.43-.08.56.12.14.23-.04.38-.22.46-.58.26-1.16.52-1.75.76-.38.14-.63.29-.34.74.17.25,0,.42-.22.53h0Z"/>
          <path class="cls-4" d="M64.03,21.97c-.17.03-.33,0-.36-.21-.03-.23.1-.35.32-.41.69-.19,1.37-.39,2.05-.59.13-.03.26-.09.38-.15.22-.11.46-.19.57.1.09.26-.12.37-.34.44-.57.18-1.15.36-1.73.53-.29.09-.58.19-.89.28h0Z"/>
          <path class="cls-4" d="M65.77,34.05c.56.04,1.16.08,1.77.12.26.01.52,0,.78,0,.2,0,.45.02.43.28-.01.24-.19.35-.45.33-.41-.04-.82-.05-1.22-.09-.44-.03-.88-.09-1.31-.03-.21.02-.38-.06-.39-.28-.01-.22.16-.3.41-.32h0Z"/>
          <path class="cls-4" d="M57.89,53.39c.07-.36.03-.73-.11-1.07-.08-.22-.1-.41.15-.48.25-.07.42.1.4.35-.04.52.27.72.68.86.36.13.7.29,1.05.44.2.09.35.24.23.46-.12.22-.32.19-.52.09-.31-.15-.63-.31-.95-.45-.2-.08-.35-.14-.28.21.02.16.07.3.16.44.08.13.19.25.32.34.19.14.54.28.29.59-.25.31-.45,0-.64-.14-.54-.4-.87-1.02-1.45-1.38-.13-.08-.26-.16-.38-.24-.17-.1-.25-.24-.14-.42.11-.18.28-.18.44-.09.24.15.43.38.74.48h0Z"/>
          <path class="cls-4" d="M64.01,48.81c-.99-.22-1.98-.43-2.98-.66-.18-.04-.29.05-.37.19-.08.15-.03.29.07.42.52.65,1.02,1.31,1.54,1.96.11.13.22.24.35.35.14.12.31.24.48.05.19-.21.02-.34-.14-.48-.49-.45-.49-.58-.08-1.1.19-.24.4-.41.73-.24.1.03.21.05.31.06.17,0,.3-.07.34-.24.04-.19-.1-.28-.25-.32h0ZM62.09,49.52c-.21-.12-.37-.29-.48-.51-.05-.09,0-.2.11-.17.22.06.53,0,.64.23.09.17-.13.31-.27.45Z"/>
          <path class="cls-4" d="M66.65,43.44c-1.04.02-2.09-.03-3.12-.14-.07-.02-.14,0-.2.03-.06.03-.11.08-.14.14-.04.07-.06.14-.05.22,0,.08.04.15.1.2.74.76,1.47,1.52,2.23,2.26.14.14.34.4.57.12.21-.25-.05-.38-.19-.52-.29-.26-.31-.53-.09-.83.07-.11.14-.23.19-.36.16-.33.26-.73.72-.53.24-.01.4-.08.4-.28,0-.24-.2-.34-.41-.33h0ZM65.41,44.17c-.09.19-.18.43-.3.66-.07.12-.19.06-.27-.02-.21-.21-.42-.43-.63-.65-.11-.12-.06-.2.09-.2.31,0,.63,0,.95.02.1,0,.19.02.17.19h0Z"/>
          <path class="cls-4" d="M65.39,46.54c-.32-.02-.64-.05-.95-.07-.24-.02-.42-.09-.47-.39-.05-.35-.32-.53-.66-.62-.76-.18-1.66.55-1.66,1.34,0,.16.04.35.22.35.48,0,.74.38,1.1.58.39.22.76.49,1.16.72.19.11.42.17.55-.09.13-.26-.09-.33-.28-.41-.15-.07-.3-.15-.44-.24-.12-.1-.38-.13-.24-.4.11-.21.23-.32.5-.28.37.06.76.07,1.13.1.18-.03.36-.1.36-.28.01-.19-.14-.28-.33-.3h0ZM63.1,47.05c-.12.05-.73-.31-.76-.43-.04-.16.37-.59.6-.62.27-.05.48.11.52.43-.02.24-.05.51-.36.62h0Z"/>
          <path class="cls-4" d="M52.23,58.79c.03.47-.19.79-.56.81-.5.03-.82-.24-.87-.75-.03-.35.35-.79.68-.81.34-.02.71.35.74.75h0Z"/>
          <path class="cls-2" d="M62.3,30.79c.03-.1.04-.2.05-.3-.12-1.28-.23-2.55-.47-3.82-.63-3.28-1.74-6.38-3.51-9.24-.05-.07-.09-.17-.1-.26,0-.09.01-.19.06-.27.61-1.23,1.2-2.47,1.83-3.69.17-.34.35-.77.21-1.05-.13-.26-.62-.21-.96-.18-2.03.18-4.07.03-6.1.1-.99.03-1.97-.06-2.96.07l-6.36.03c-.52.08-.85-.14-1.14-.59-2.21-3.44-4.43-6.88-6.67-10.3-.25-.39-.47-.8-.82-1.13-.26-.24-.36-.21-.53.09-.7,1.16-1.42,2.3-2.14,3.45-1.75,2.81-3.49,5.61-5.23,8.42-.11.17-.22.28-.45.27-1.2-.04-2.4.04-3.6.06-4.18.06-8.37.16-12.55.1-.64,0-.67.06-.49.68.27.9.86,1.66,1.18,2.54.21.57.43,1.02,0,1.59-.5.67-.76,1.48-1.12,2.23-2.08,4.32-2.99,8.87-2.68,13.66.26,3.75,1.29,7.42,3.04,10.75,2.35,4.48,5.66,8.08,9.97,10.73,3.18,1.97,6.73,3.26,10.43,3.8.22.03.29.16.36.31.3.67.6,1.33.9,2,.65,1.44,1.3,2.88,1.95,4.32.04.12.12.21.22.29.1.07.22.11.34.11.28.01.31-.21.41-.4.96-2.05,1.93-4.08,2.88-6.14.06-.14.16-.27.28-.36.12-.09.27-.15.42-.17.47-.06.92-.19,1.38-.28,3.3-.68,6.43-1.78,9.28-3.63,1.5-.96,2.9-2.05,4.2-3.26,3.8-3.58,6.3-7.93,7.64-12.95.53-1.94.81-3.95.85-5.96.04-.54.04-1.09,0-1.64h0ZM59.35,30.37s.08,0,.12.01c.03.01.07.03.1.06.03.03.05.06.06.1.01.04.01.08,0,.12-.03.23-.09.45-.14.68h-.11c-.04-.23-.09-.46-.12-.69-.01-.09-.1-.27.09-.28h0ZM44.12,12.73c2.09,0,4.18-.03,6.27-.05h8.68c.57,0,.57,0,.33.54-3.39,7.5-6.89,14.96-10.48,22.37-.22.46-.48.69-1.02.64-.47-.03-.94-.03-1.41,0-.3.01-.37-.07-.24-.35.63-1.38,1.22-2.76,1.86-4.14,2.17-4.74,4.35-9.48,6.53-14.21.29-.63.58-1.26.9-1.88.12-.23.22-.46.13-.69-.14-.33-.34,0-.52-.01-1.72-.08-3.44.07-5.16.05-1.39,0-2.79.03-4.18.06-.44.01-.75-.1-.98-.52-.28-.48-.59-.95-.91-1.4-.2-.28-.26-.43.21-.43h0ZM38.83,37c2.5,3.66,5,7.33,7.49,11,.02.02.01.06.03.18-.44,0-.87.02-1.29,0-2.11-.11-4.21-.43-6.33-.33-.64.03-1.28-.11-1.92-.02-.48.07-.87.33-1.26.6-.12.08-.22.24-.38.03-.54-.71-1.33-.68-2.1-.65-.88.03-1.77.13-2.65.17-2.01.07-4.03.12-6.12.19.65-1.01,1.26-2,1.9-2.97.56-.84,1.16-1.66,1.66-2.51,1.02-1.69,2.17-3.3,3.23-4.97.15-.23.34-.43.5-.66.07-.1.21-.25.12-.38-.05-.07-.12-.12-.2-.16-.08-.03-.17-.05-.25-.05-1.84.07-3.67.14-5.51.2-.28,0-.51-.05-.66-.37-1.1-2.44-2.23-4.86-3.35-7.3-.15-.32.21-1.05.54-1.07.41-.03.81-.19,1.14-.43.36-.25.58-.09.79.17.21.27.39.53.6.79.08.1.23.2.36.05.1-.14-.03-.22-.12-.29-.28-.22-.41-.56-.64-.82-.15-.16-.13-.31.12-.28.46.06.82-.16,1.16-.4.77-.52,1.53-.57,2.34-.09.31.19.69.22,1,.44.02.02.04.03.07.04.03,0,.05.01.08,0,.03,0,.05-.01.07-.03.02-.01.04-.03.06-.05.01-.03.02-.06.02-.09,0-.03-.01-.06-.02-.09-.02-.03-.03-.05-.06-.07-.03-.02-.05-.03-.09-.03-.64-.16-.33-.54-.2-.86.36-.92,1.17-1.54,1.62-2.41.09-.18.28-.11.42-.16.1-.03.21-.09.2-.21-.01-.15-.14-.14-.24-.11-.43.14-.56-.26-.79-.45-.12-.09-.12-.24.03-.35.79-.53,1.35-1.3,1.91-2.05.48-.64,1.26-.94,1.64-1.66.03-.06.07-.12.1-.18.06,0,.12.02.18.04.02.07.03.13.03.2.03.16-.07.36.19.57.02-.43.19-.78-.18-1.06.18-.34.58-.47.81-.85.24.62.54.93,1.25.71.34-.1.34.47.55.77-.41-.05-.52.05-.34.41.09.18.24.43-.14.6-.09.04,0,.6.11.87.19.45.08.72-.28,1.02-.49.41-1.01.79-1.37,1.35-.19.29-.51.5-.78.74-.5.44-.58.44-.88-.16-.14-.29-.36-.12-.54-.13-.2-.01-.48-.36-.56-.05-.07.28.34.21.55.29.25.09.45.28.43.52-.03.36.15.5.42.63.23.11.35.33.45.55.22.51.39,1.04.82,1.43.14.13.03,1.29-.12,1.44-.05.05-.14.08-.16.13-.05.21-.42.29-.28.56.12.23.39.07.57.14.38.14.82,0,.78-.29-.07-.48.15-.63.45-.83.09-.05.03-.23.23-.27.39-.07.31-.38.28-.66-.01-.04,0-.09,0-.13s.05-.07.09-.1c.02,0,.03-.01.05,0,.02,0,.03,0,.05.02.02.01.03.02.03.03,0,.02.01.03.01.05.02.21-.07.41.17.59.18.14-.15.36-.04.59.17.03.31-.28.53-.03.13.14.18-.1.23-.22.19-.46.43-.9.71-1.3,0,.21-.03.43-.07.64-.03.13-.08.24.05.32.12.08.2-.05.31-.1.44-.2.58-.54.56-1,0-.1.08-.26.31-.35,0,.47-.1.93.25,1.29.06.06-.1.11-.16.15-.34.25-.67.5-1.01.73-.1.08-.22.16-.1.28.09.1.18-.03.28-.06.45-.48,1.02-.76,1.61-1.01.13-.05.17-.19.3-.21.14-.16.28-.3.42-.46.45-.54.68-.55,1.2-.09.11.1.11.36.31.3.27-.07-.04-.35.13-.5.34.19.61.4.36.84-.06.1-.1.22.03.26.48.16.79.63,1.3.73.13.03.33.14.33-.05,0-.48.25-.22.43-.17.52.17.95.49,1.36.85.24.22.5.42.78.61.15.1.41.21.5-.02.1-.26-.19-.17-.33-.23-.21-.08-.4-.22-.52-.41.04-.09.15-.14.2-.22.02-.03.03-.07.03-.1.38-.2.51.12.69.33.09.1.13.31.28.22.12-.07.31-.07.38-.22.02-.04.03-.08.03-.12v-1.28c-.1.09-.17.19-.23.31-.15.33-.09.68-.08,1.05-.21-.33-.69-.43-.78-.77-.09-.34.18-.71.24-1.08-.18.2-.33.43-.45.67-.12.24-.19.5-.22.77-.1.11-.2.23-.29.34-.34-.28-.25-.63-.09-.94.16-.29.33-.57.52-.84.2-.29.4-.6.84-.31.12.08.27.03.4-.03.08-.05.16-.07.22.03.21.32.4.66.62.97.31.41,0,.73-.16,1.05-1.12,2.4-2.25,4.78-3.37,7.17-.13.28-.29.43-.63.43-1.9-.02-3.81.14-5.71.03-.18-.01-.31.02-.4.16-.14.2-.02.35.09.52h0s-.02.02-.02.02ZM43.15,42.34c.45-.76.71-1.6,1.11-2.39.09-.18.24-.17.4-.17h.94v-.05h.63c.64-.01.63-.02.36.53-.61,1.26-1.22,2.53-1.81,3.8-.15.31-.26.34-.43.04-.02-.03-.04-.05-.06-.09l-1.13-1.69h0ZM46.26,26.58c-.05.4-.21.76-.42,1.15-.19-.22-.12-.44-.14-.65-.01-.12.05-.33-.16-.31-.17.01-.1.19-.09.3.02.31.04.62.07.95-.35-.05-.6-.29-.93-.33-.19-.02-.38-.08-.55.04-.39.26-.39-.01-.4-.28,0-.39.09-.78-.02-1.22-.31.3-.08.67-.28,1-.23-.32-.24-.74-.6-.94-.22-.13-.42-.34-.68-.07-.14.14-.25.03-.37-.04-.07-.04-.18-.16-.1-.18.26-.07.01-.4.28-.44,1.18-.19,2.33-.19,3.39.5.21.14.47.21.71.32.13-.05.29.11.4-.12.15-.34.39-.17.59-.05.31.19.06.32-.07.47-.14.17-.26.35-.41.55-.17-.2.03-.33.02-.49,0-.16-.02-.28-.22-.14h0ZM42.74,25.2c-.44.09-.88.15-1.33.08l-.11-.15c.31-.29.64-.56.94-.86.16-.16.31-.13.47-.03.11.07.2.17.26.29.06.12.08.25.07.38,0,.21-.16.26-.31.29h0ZM41.9,24.09c-.24-.02-.24-.26-.31-.42-.04-.09.03-.21.11-.18.09.03.17.08.23.15s.12.14.16.23c0,.14-.08.23-.18.22h0ZM41.58,24.38c0,.22-.17.35-.35.39-.18.04-.21-.16-.22-.29,0-.22.18-.31.35-.41.19.02.22.18.22.31ZM40.5,25.08c-.08-.18-.03-.32.14-.37.21-.05.23.13.21.26-.03.21.07.36.17.52.09.14,0,.22-.1.3-.1.08-.19.17-.31.1-.09-.05-.09-.14-.04-.22.12-.21.01-.4-.07-.59ZM38.17,25.94c.06.23-.36.27-.44.17-.12-.13-.4-.27-.26-.55-.33.08-.47.4-.7.59-.16.13-.3.29-.66.4.21-.42.5-.8.85-1.12.24-.24.48-.48.6-.8l-.07-.09c.19-.16.48-.24.52-.55.48-.12.73-.52,1.06-.83l.21-.21c.36-.26.67-.73,1.21-.24l-.5.33c-.3.15-.52.4-.76.62-.17.09-.36.17-.46.34-.02.03-.03.05-.03.08-.3.15-.5.41-.75.63l-.18.12-.03.04c-.11.17-.3.31-.31.54h0c.43.06.63-.14.64-.56.22-.22.52-.35.67-.64.02-.04.04-.09.05-.13.17.03.4-.22.51.1.01.42-.39.49-.6.72-.27.3-.72.46-.58,1.03h0ZM37.33,26.43c0,.17-.07.31-.29.19-.1,0-.26.1-.21-.13.04-.18.16-.34.32-.36.17-.02.18.17.18.3ZM35.22,26.97c-.07-.07-.1-.19-.01-.22.3-.14.25-.41.29-.66.02-.11.1-.32.27-.2.09.07.31.16.21.36-.13.26-.28.52-.43.77-.04.05-.08.09-.13.12-.07-.05-.14-.1-.2-.16h0ZM35.22,27.52c-.02.1-.03.22-.13.2-.18-.03-.24-.17-.23-.34,0-.09.02-.19.14-.15.07.02.12.05.16.11.04.05.06.12.06.19h0ZM35.5,24.87s.03-.02.06-.03c.02,0,.04,0,.06,0,.02,0,.03.02.05.04.01.02.02.04.02.06.04.25.12.51-.26.69-.02-.07-.03-.14-.04-.21.03-.19-.1-.42.11-.57h0ZM35.34,24.64c-.14.18-.29.42-.58.19.14-.18.27-.36.41-.55l.66-.72c.16-.05.3-.16.4-.3l.45-.31.38-.17.03-.07c.05-.13.07-.25-.19-.15-.14.05-.25.17-.37.27l-.45.31c-.24-.14-.06-.21.02-.34.14-.21.7-.21.38-.69-.03-.05.2-.25.36-.31-.3-.34-.09-.81-.29-1.19-.06-.1-.09-.22-.1-.34,0-.12-.1-.31.09-.35.19-.03.16.17.22.29.25.5.4,1.02.32,1.59l.49.54c0,.26-.19.38-.38.48l-.07.03.04.1-.22.19c-.27.18-.51.4-.71.66-.33.26-.62.54-.89.86h0ZM34.59,25.98c-.18.01-.21-.15-.24-.28-.02-.14,0-.25.17-.25.15-.01.24.05.21.21-.03.11.09.31-.14.32h0ZM35.8,23.35l-.1.12c-.08,0-.18,0-.18-.1,0-.03.02-.06.04-.08.02-.02.04-.04.07-.05.1-.03.15.04.17.12h0ZM35.49,23.04c-.45-.12-.4.37-.63.52l-.05.03-.27.2c-.07.02-.14.06-.19.11-.05.05-.1.11-.12.18-.12.09-.24.21-.44.04.46-.46.96-.87,1.36-1.38.06-.08.14-.17.26-.07.12.1.18.21.08.35h0ZM34.35,24.33c.1-.12.2-.23.3-.35l.28-.23.08-.07c.37.07.06.26.06.39l-.07.07c-.12.09-.22.19-.29.32-.02.05-.03.1-.04.15-.14.1-.12.32-.31.42-.08-.1-.12-.22-.12-.35s.05-.25.13-.35h0ZM38.93,23.01c-.33.26-.68.49-.88.86-.02.03-.03.07-.05.1h-.07c-.26.03-.38.26-.55.43-.09.03-.18.14-.26.03-.05-.07-.07-.15-.07-.23,0-.08.05-.16.1-.22.36-.23.69-.51.97-.83.29-.24.6-.45,1.01-.36l-.2.23h0ZM36.33,23.89c.28-.18.53-.4.73-.66.05-.01.09-.03.12-.07.03-.03.06-.07.08-.12.3-.07.39-.6.83-.39.08.15-.03.25-.1.36-.35.25-.66.53-.94.86-.14.09-.36.02-.41.25-.07.33-.37.18-.45.12-.19-.16.1-.22.14-.35ZM39.03,22.27c-.03.05-.09.09-.14.11-.05.03-.12.04-.18.03-.63.05-1.31-.57-1.31-1.2-.01-.26-.09-.51-.22-.73-.12-.23-.17-.48-.25-.87.61.47,1.12.84,1.37,1.47.13.33.29.66.62.88.09.06.21.17.12.31h0ZM39.74,23.5c.17-.1.15.13.24.18-.07.26-.11.56-.5.29-.12-.27.09-.37.26-.47ZM40.11,23.15c.09-.02.2-.15.26-.04.03.06.04.12.04.19s-.01.13-.03.19c-.07.16-.19.03-.28-.03-.03-.05-.05-.1-.05-.16,0-.06.02-.11.06-.16ZM40.45,23.78c.26.02.14.27.21.39,0,.16-.03.33-.21.31-.23-.04-.14-.28-.18-.43-.01-.03-.02-.06-.01-.09,0-.03.02-.06.03-.09.02-.03.04-.05.07-.06.03-.02.06-.02.09-.02h0ZM41,24c-.21,0-.18-.25-.2-.4,0-.04,0-.09,0-.13.01-.04.03-.08.06-.11.03-.03.06-.06.1-.08.04-.02.08-.03.12-.03.23,0,.14.27.22.4,0,.21-.17.36-.31.36ZM29.91,15.21l1.35-2.13c.1-.17.26-.21.45-.21,2.45-.01,4.91-.02,7.36-.05.36,0,.57.1.75.41.34.6.73,1.17,1.14,1.82-3.7.14-7.32.2-11.04.16h0ZM29.84,22.92c-.22.03-.4.22-.62.24h-.1c.04.09-.13.32.17.23.25-.07.48-.19.69-.34.13.04.3.05.29.24,0,.14-.16.1-.24.14-.45.21-.9.42-1.41.6.29-.29.17-.75.48-1.03.12-.12.26-.22.39-.33.31-.2.41-.08.36.24ZM29.7,23.82s.03-.02.05-.02c.02,0,.03,0,.05,0,.02,0,.03.02.04.03.01.01.02.03.02.05.04.1-.04.17-.11.21-.36.21-.73.39-1.09.6-.17.1-.4.15-.47.4.34.12.5-.28.81-.25,0,.63-.72.63-.93,1,.04.28.54-.17.4.33-.06.21-.16.33-.36.16-.27-.21-.59-.35-.93-.4.42-.47.71-.99,1.1-1.38.36-.35.94-.49,1.42-.72h0ZM30.46,8.23c1.52-2.43,3.05-4.86,4.58-7.29.03-.06.08-.1.17-.23.26.38.51.72.74,1.08,3.02,4.68,6.06,9.35,9.04,14.04,1.69,2.66,3.45,5.26,5.07,7.97.17.28.28.6.5.84.03.03.06.09.07.14,0,.05,0,.1-.03.15-.34.72-.67,1.45-1.06,2.29-1.11-1.69-2.16-3.26-3.19-4.85-2.05-3.17-4.09-6.35-6.12-9.52-1.48-2.31-2.94-4.64-4.41-6.96-.25-.39-.42-.4-.66-.01-1.83,2.92-3.65,5.83-5.47,8.75-1.84,2.93-3.7,5.84-5.53,8.78-.86,1.39-1.76,2.75-2.65,4.12-.23.35-.33.25-.47-.05-.3-.69-.59-1.37-.92-2.04-.13-.28-.07-.48.07-.72,3.43-5.49,6.85-10.98,10.28-16.47h0ZM11.18,13.59c-.19-.38-.07-.48.32-.48,2.49,0,4.98,0,7.47,0s4.88-.1,7.32-.1c.15,0,.35-.07.43.07.08.14-.1.28-.17.41-.24.42-.49.84-.73,1.26-.19.31-.4.48-.82.49-2.35.02-4.7.14-7.05.13-1,0-2.01.15-3-.11-.04-.01-.09-.01-.13,0-.04.02-.08.04-.1.08-.03.03-.04.08-.04.12,0,.04.02.09.05.12.88,1.04,1.24,2.35,1.83,3.54.9,1.82,1.74,3.67,2.59,5.53,1.74,3.84,3.47,7.68,5.2,11.52.24.54.24.54-.37.55h-.16c-.62-.04-1.36.29-1.82-.1-.42-.35-.55-1.06-.81-1.61-1.08-2.28-2.21-4.53-3.24-6.83-1-2.26-2.06-4.48-3.06-6.74-.31-.71-.55-1.48-.9-2.14-.45-.87-.85-1.78-1.34-2.64-.57-.97-.95-2.04-1.46-3.05h0s0,0,0,0ZM9.93,39.17c-.1.17-.17.38-.44.5-.52-1.83-1.02-3.65-1.11-5.55-.17-.66-.12-1.34-.18-2-.01-.04,0-.09.01-.13.02-.04.05-.07.09-.09.61-.28.94-.92,1.56-1.17.06-.03.16-.06.17-.11.16-.5.64-.12.91-.34.06.05.12.11.18.17.48-.19.34.21.28.35-.1.23-.3.42-.47.62-.09.1-.33.19-.15.35.16.15.29-.06.36-.17.29-.43.78-.69.82-1.35.03-.42.52-.79.94-1.05.19-.03.24.03.18.16-.01.02-.02.04-.04.06-.2.26-.43.5-.6.77-.06.07-.12.15-.16.24-.05.1-.03.22.22.31.1.03.1.1.08.16-.03.06-.09.11-.14.15-.12.08-.3.07-.37.24-.22.14-.4.32-.54.53-.1.12-.19.24-.27.38l-.02.04c-.04.1-.06.25.09.24.19-.02.26.31.45.12.03-.03.05-.05.06-.09.01-.05.01-.1,0-.15-.02-.05-.04-.09-.08-.13-.04-.05-.07-.12-.1-.18l.56-.62c.17.16.58.18.4.56-.01.03-.03.05-.05.08,0,0-.01.02-.02.03-.06.14.1.2.26.14.15-.06.28-.13.41-.2.31-.11.56-.33.81-.53.05-.03.09-.07.11-.12,0-.02,0-.03,0-.05,0-.02,0-.03-.02-.05-.08-.13-.18-.05-.26,0-.2.14-.39.29-.58.44-.1.08-.21.15-.28-.03.59-.67.94-1.53,1.6-2.16.11-.03.26-.19.29.08.02.1,0,.21-.04.3-.04.09-.1.18-.16.26-.2.28-.55.43-.71.81.45-.12.88-.53,1.08-.93.06-.12.1-.25.1-.38,0-.28.02-.66-.18-.73-.21-.08-.38.27-.53.47-.19-.05-.15.29-.39.19,0-.07,0-.15.03-.21.06-.1.14-.2.22-.29.03-.03.05-.06.07-.1.01-.02.01-.05,0-.07,0-.02-.02-.04-.03-.06-.1-.12-.19-.02-.26.05-.19.2-.36.42-.55.62-.12.12-.19.35-.45.26l.24-.47c.08-.07.2-.21.14-.24-.55-.27-.03-.43.07-.59.21-.3.46-.57.69-.85.02-.03.03-.05.04-.09,0-.03,0-.07,0-.1,0-.02-.02-.03-.03-.04-.02-.01-.03-.02-.05-.02-.02,0-.03,0-.05,0-.02,0-.03.02-.04.03-.26.51-1.03.12-1.24.74-.07-.41.22-.57.41-.79.1-.12.2-.24.29-.37.15-.24.29-.47.51-.04.11.21.31.28.51.07.31-.29.52-.16.74.14.48.62,1.09,1.04,1.96,1.12-.78.92-1.27,2.06-2.1,2.84-.65.61-.93,1.38-1.41,2.03-.4.54-.79,1.14-1.18,1.72-.96,1.39-1.83,2.83-2.67,4.29h0s-.01,0-.01,0ZM11.16,39.26c2.12-3.41,4.25-6.82,6.36-10.24.03-.04.08-.07.17-.13.41.88.8,1.75,1.2,2.61.07.16,0,.24-.07.37-.89,1.49-1.83,2.95-2.8,4.4-.15.23-.29.47-.4.72-.16.36.09.61.57.59,1.2-.05,2.4-.12,3.6-.16,3.43-.08,6.86-.14,10.29-.2.13,0,.3-.07.38.08.07.15-.09.25-.16.36-.35.56-.59,1.31-1.1,1.61-.49.29-1.26.11-1.9.12-2.63.03-5.26.17-7.88.2-2.66.03-5.33.07-7.99.09-.35,0-.51-.02-.27-.41h0ZM14.7,45.92c-.2.1-.22-.1-.29-.2-.14-.24-.28-.48-.41-.73-.13-.24-.27-.48-.62-.56-.29-.06-.45-.35-.29-.66.15-.28.38-.19.58-.03.13.1.22.21.38.05.16-.16.36-.34.32-.62-.01-.1-.05-.19-.12-.26-.07-.07-.15-.12-.25-.13-.26-.06-.53-.02-.76.11-.31.17-.42-.04-.5-.25-.09-.26.18-.24.31-.28.9-.28,1.64.19,1.64,1.02,0,.17-.04.33-.12.48-.08.15-.19.28-.33.37-.19.14-.18.25-.07.43.19.29.35.6.52.9.07.12.17.26-.02.35h0s0,0,0,0ZM16.36,45.06c-.68,0-1.2-.55-1.2-1.25s.49-1.17,1.19-1.17,1.2.51,1.2,1.23c0,.15-.03.31-.09.46-.06.15-.15.28-.26.39-.11.11-.24.2-.39.26-.15.06-.3.09-.46.09h0ZM20.02,45.86c-.22.19-.29.03-.39-.12-.1-.16-.22-.31-.34-.46-.16-.2-.29-.43-.6-.12-.18.19-.48.13-.59-.17-.11-.3.01-.54.32-.66.12-.04.31.02.33-.18.02-.2-.18-.17-.29-.22-.13-.05-.24-.15-.32-.26-.08-.12-.13-.25-.14-.39-.02-.31,0-.62,0-.97.47.07.41.39.43.68.02.22-.15.56.19.61.36.05.38-.32.5-.57.08-.16-.15-.5.21-.47.36.03.34.31.26.59-.01.09-.03.17-.06.25-.41.82-.37,1.52.48,2.04.17.11.18.25,0,.41h0ZM23.2,42.82c-.1.1-.2.2-.29.3-.31.31-.73.52-.26,1.1.31.38-.08.88-.59.87-.57,0-.9-.64-.55-1.19.18-.29.09-.41-.1-.59s-.4-.39-.59-.59c-.09-.09-.26-.17-.12-.34.14-.16.24,0,.34.09.3.29.58.77.91.81.35.04.6-.5.91-.78.14-.12.23-.12.35.01.1.11.12.2,0,.31h0ZM23.93,40.06c.64,0,1.29,0,1.93-.01.22,0,.3.1.38.28.28.64.57,1.26.86,1.9.06.14.14.27.03.44-.42.66-.84,1.31-1.33,2.09-.72-1.54-1.39-2.97-2.05-4.4-.1-.21-.03-.29.18-.29ZM41.49,50.96c-1.62,3.48-3.23,6.97-4.93,10.41-.49,1-.98,2-1.47,3-.02.06-.05.11-.09.15-.04.04-.09.07-.15.09-.3-.64-.61-1.27-.91-1.91-1.57-3.37-3.14-6.75-4.71-10.11-.28-.62-.54-1.24-.84-1.85-.19-.37-.05-.44.29-.45.54-.01,1.08-.04,1.62-.07.14-.01.28.02.4.09.12.07.21.19.26.32.83,2.15,1.96,4.16,2.83,6.28.26.63.65,1.21.78,1.9.07.2.19.38.34.53.09.1.22.07.31-.04.22-.22.4-.48.54-.76,1.11-2.47,2.23-4.94,3.33-7.42.36-.82.35-.82,1.27-.76.26.02.52.01.78.02.58.02.59.03.34.57h0ZM46.81,49.21c-.02.85-.01.84-.85.85-.75,0-1.48-.19-2.24-.19-1.16-.02-2.32-.12-3.48-.16-.89-.03-1.77-.11-2.66-.03-.62.06-1.19.21-1.71.56-.24.16-.41.22-.66-.05-.45-.48-1.07-.66-1.71-.63-2.08.08-4.17.05-6.25.21-.93.07-1.87.06-2.81.19-.2.03-.47.07-.46-.25.01-.28-.27-.7.28-.8,1.08-.18,2.17-.28,3.27-.3,1.95-.06,3.89-.12,5.84-.19.66-.02,1.19.16,1.49.82.16.35.61.37.85.04.19-.27.45-.49.76-.63.3-.14.64-.21.97-.18,1.81.09,3.62-.12,5.42.07,1.21.12,2.42.21,3.63.28.29.01.33.11.32.38h0s0,0,0,0ZM49.65,43.53c0,.14.06.35-.17.36-.28.02-.21-.22-.22-.38,0-.59,0-1.17,0-1.84l-.64.33c-.1-.2-.08-.33.11-.44.14-.07.24-.19.38-.28.16-.1.23-.44.46-.32.18.1.07.38.07.58,0,.66,0,1.31,0,1.98h0ZM52.29,43.5c-.19.39-.56.5-.97.46-.14,0-.28-.05-.39-.14-.11-.08-.2-.19-.25-.33-.04-.09-.1-.21.02-.28.09-.05.22-.07.28.03.16.29.36.49.71.33.35-.16.39-.49.43-.84-1,.39-1.67-.03-1.55-.95.06-.47.33-.77.79-.85.21-.05.43-.01.61.09s.33.27.41.47c.14.32.21.67.19,1.02-.01.35-.1.69-.27,1h0ZM54.59,43.48c-.18.38-.54.52-.97.48-.14,0-.28-.05-.39-.12-.12-.08-.21-.19-.26-.32-.04-.09-.16-.23.02-.31.09-.04.23-.06.28.05.14.29.34.46.66.34.38-.15.4-.52.52-.97-.47.34-.85.41-1.23.15-.34-.23-.41-.58-.38-.97.04-.48.31-.78.76-.86.45-.09.86.1,1.03.52.14.32.2.67.19,1.02-.01.35-.1.69-.25,1.01h0ZM57,41.38c-.53.71-.91,1.47-1.01,2.36-.02.17-.13.19-.26.18-.18-.02-.16-.15-.15-.27.07-.64.29-1.25.63-1.79.09-.14.18-.28.32-.49h-1.05c-.14,0-.34.05-.33-.2,0-.21.18-.17.31-.18.43,0,.87,0,1.3,0,.36-.01.42.17.24.41h0ZM58.99,38.83c-3.5.12-7,.24-10.49.33-1.31.03-2.61,0-3.92,0v.05c-1.03,0-2.05-.01-3.09,0-.35,0-.59-.1-.78-.4-.3-.47-.63-.92-.93-1.38-.08-.12-.27-.23-.17-.4.08-.13.26-.07.39-.08,1.31-.03,2.61-.05,3.92-.09,3.57-.09,7.14-.2,10.71-.17.69,0,.85-.28.46-.88-.81-1.26-1.63-2.51-2.47-3.74-.24-.35-.34-.78-.68-1.09-.14-.12-.08-.34.02-.52.31-.6.61-1.21.87-1.84.18-.43.33-.35.53-.04.54.87,1.08,1.75,1.62,2.62,1.47,2.32,3,4.6,4.39,6.97.35.59.33.62-.38.64h0ZM61.7,33.32c-.12,1.77-.41,3.52-.88,5.23-.03.11-.01.28-.17.28-.12,0-.21-.1-.27-.22-1.12-2.02-2.53-3.87-3.72-5.85-.29-.48-.55-.98-.91-1.39-.49-.57-.47-1.21-.43-1.87.02-.12.02-.24.01-.36-.02-.09-.04-.22-.18-.2-.12.02-.1.13-.1.21v.91c-.67-.4-.43-.82-.25-1.26.06-.15.25-.32.1-.47-.14-.15-.47.04-.59-.24-.3.17-.06.44-.13.7-.48-.33-.56-.85-.76-1.33,1.08.22,2.13.43,2.93,1.26.09.09.16.18.22.29.35.69.97.93,1.67.98.4.03.73-.02.7.55-.02.26.16.52.09.88-.28-.28-.8-.26-.75-.81,0-.02,0-.03,0-.05,0-.02-.02-.03-.03-.05-.01-.01-.03-.02-.04-.03-.02,0-.03-.01-.05-.01-.03,0-.07,0-.1.02-.03.02-.05.05-.05.09-.09.33-.18.67-.27,1,0,.02,0,.03,0,.05s0,.03.01.05c0,.02.02.03.03.04.02.01.03.02.05.02.02,0,.04.01.07,0,.02,0,.04-.01.06-.02.02-.01.03-.03.05-.05.01-.02.02-.04.02-.06.09-.58.37-.28.59-.12.24.17.43.49.8.21.06-.05.11.02.16.08.2.27.27.13.27-.1,0-.27-.04-.55.09-.85.39.39.3.97.68,1.33.31.29.46.79.98.86.17.02.14.16.13.28h-.01Z"/>
          <path class="cls-2" d="M34.55,21.84c-.1.07-.33-.05-.39.09-.02.05-.02.09-.02.14.02.25.25.21.39.23.04,0,.08,0,.11-.02.03-.02.06-.05.07-.08.03-.07.05-.14.06-.21-.02-.16-.1-.24-.24-.15h0Z"/>
          <path class="cls-2" d="M30.88,24.81c-.11.09-.21.2-.27.33-.05.12-.03.26.05.49.06-.08.12-.17.16-.26.05-.12.05-.24.06-.56h0Z"/>
          <path class="cls-2" d="M24.13,28.82s-.07.02-.1.04c-.03.02-.05.05-.07.08,0,.03,0,.07,0,.1.01.03.03.06.06.08.34.32.7.63,1.06.93.09.08.17.07.22,0,.02-.03.03-.07.03-.1,0-.12-1.1-1.15-1.2-1.12h0Z"/>
          <path class="cls-2" d="M28.03,28.53c-.48-.24-.75-.7-1.09-1.09-.26-.27-.57-.48-.91-.64-.05.04-.12.07-.14.13-.05.12.05.2.14.24.57.25.93.7,1.26,1.2.13.19.37.31.56.45.09.07.19.1.28,0,.01-.02.02-.03.03-.05.06-.11-.02-.19-.12-.24h0Z"/>
          <path class="cls-2" d="M33.87,22.58c.1-.57.07-.7-.24-.92-.04.31.03.57.24.92Z"/>
          <path class="cls-2" d="M31.99,22.75s-.02.03-.01.06c0,.13.1.16.21.17.03,0,.06,0,.09,0,.03-.01.05-.03.07-.06.01-.02.02-.04.02-.07-.03-.12-.14-.14-.24-.14-.05,0-.1,0-.13.05h0Z"/>
          <path class="cls-2" d="M32.51,25.26s-.04.04-.05.07c-.02.07.05.13.1.19.21.26.41.52.43.86.01.13.12.09.2.09.14-.5-.25-.81-.43-1.2-.08,0-.19-.05-.24-.01Z"/>
          <path class="cls-3" d="M37.55,24.62l.06.04s-.03-.04-.06-.04Z"/>
          <path class="cls-2" d="M51.52,41.29c-.1,0-.21.02-.29.08-.09.05-.16.14-.19.23-.04.12-.07.24-.06.37.01.37.21.6.59.58.1,0,.19-.03.28-.09.08-.05.14-.13.18-.22.05-.11.07-.23.08-.36-.06-.33-.18-.62-.58-.6h0Z"/>
          <path class="cls-2" d="M53.83,41.29c-.1,0-.21.01-.3.07-.09.05-.16.13-.21.22-.05.11-.08.24-.07.36,0,.34.18.61.56.61.1,0,.19-.02.28-.06.08-.05.15-.12.19-.21.05-.11.07-.23.08-.35-.02-.35-.13-.64-.52-.64h0Z"/>
          <path class="cls-2" d="M11.96,32.97c-.1,0-.73.56-.82.72,0,0,0,.02-.01.03,0,.03,0,.07.02.09.02.03.05.05.08.05.09.02.77-.59.85-.75,0,0,0-.02,0-.03,0-.03-.02-.07-.05-.09-.03-.02-.06-.03-.09-.03h0Z"/>
          <path class="cls-2" d="M44.59,26.22s-.02.03-.04.05c-.01.02-.02.04-.02.07.22.18.38.44.7.47.01,0,.03-.02.1-.08-.26-.19-.4-.49-.75-.51Z"/>
          <path class="cls-2" d="M32.05,26.11s.06-.1.08-.15c.09-.22.1-.46.18-.68.12-.32.02-.49-.29-.57-.2.13-.36.33-.45.55-.09.21-.16.45-.24.67-.05.12-.03.24.16.31.05-.21.12-.43.21-.63.11-.23.24-.45.41-.64-.07.38-.12.63-.17.88-.03.05-.07.1-.09.16-.1.22-.07.4.29.5.12.04.22.1.31.18.15.1.4.19.28.42-.14.29-.31.02-.47-.03-.08-.02-.15-.09-.23-.12-.16-.05-.34-.34-.47-.11-.09.16.2.28.35.38.04.03.09.05.14.07.37.13.6.32.4.71-.01.03-.03.05-.05.08-.01.02-.03.04-.04.06-.03.07-.05.15.07.19.12.04.18-.03.22-.12,0-.01.01-.03.02-.03.16-.38.31-.77.46-1.16.07-.17-.1-.24-.16-.36l-.92-.58h.01Z"/>
          <path class="cls-2" d="M31.41,23.87l-.67,2.46.17.05.58-1.79c.02-.24.34-.52-.08-.72h0Z"/>
          <path class="cls-2" d="M31.41,27.44c-.09-.01-.17,0-.2.07-.01.03-.02.05-.02.08,0,.13.13.14.23.14.09,0,.18.03.23-.05,0-.02.01-.03.02-.05-.03-.15-.14-.18-.26-.19h0Z"/>
          <path class="cls-3" d="M46,26.41s.03.02.05.02l-.09-.06s.02.03.03.05Z"/>
          <path class="cls-2" d="M55.67,29.51c-.07.16-.11.34-.1.52,0,.09.04.18.14.18.06-.01.11-.04.15-.09h0c-.02-.31.24-.58.13-.93-.13.08-.24.19-.31.33h0Z"/>
          <path class="cls-2" d="M56.58,29.47c-.05.09-.09.17-.13.26-.1.23-.15.48-.14.74,0,.14.07.23.22.22.07,0,.14-.04.19-.09,0,0,0-.01,0-.02s0-.01,0-.02c-.26-.31.12-.69-.14-1.09h0Z"/>
          <path class="cls-2" d="M57.65,30.26c-.08-.02-.15-.01-.18.07,0,.01,0,.02-.01.04-.12.48-.44.9-.43,1.35-.01.17-.06.28.06.35.02,0,.03.02.04.02s.03,0,.05,0c.02,0,.03-.01.04-.02.01-.01.02-.02.03-.04,0,0,0-.02,0-.02.05-.4.17-.78.36-1.14.06-.12.12-.24.18-.36.05-.1-.01-.2-.13-.23h0Z"/>
          <path class="cls-2" d="M34.08,27.36c-.05-.13-.06-.27-.05-.4.02-.15.01-.38-.18-.37-.09,0-.18.02-.26.06-.08.04-.14.11-.19.19-.01.03-.02.05-.03.08-.02.12-.02.24,0,.36h-.04c.03.19.05.38.1.56.03.1.11.29.23.15.16-.19.22-.01.34.02.11.03.19.2.3.05.01-.01.02-.03.02-.04.02-.05.03-.1.02-.16,0-.05-.03-.1-.07-.14-.1-.1-.17-.22-.22-.34h0Z"/>
          <path class="cls-2" d="M42.29,28.46c0-.08.02-.19-.03-.24-.4-.5-1.05-.51-1.56-.81l-.13.09c-.57.43-1.19.78-1.84,1.05h-.05s-.04.02-.04.02c-.08.44-.54.43-.8.66-.17.15-.2-.17-.33-.23-.05-.03-.11-.05-.17-.05s-.12.02-.17.05c-.02,0-.03.02-.04.03-.01.02-.02.03-.02.05v.05s.01.03.03.05c.21.22.54.48.76.36.33-.17.71-.33.96-.66.22-.29.58-.33.88-.4.13-.02.26-.01.38.04.12.05.23.13.31.24.18.24-.1.32-.18.48-.07.15-.17.3-.24.46-.02.03-.02.06-.03.09,0,.03,0,.06.02.09.01.03.03.05.05.07.02.02.05.03.08.04.03,0,.06.01.09,0,.03,0,.06-.02.08-.04.02-.02.04-.05.05-.08,0-.03.01-.06,0-.09-.1-.31.14-.45.28-.62.09-.12.19-.38.4-.22.18.14-.07.26-.12.39-.06.17-.27.36,0,.48.24.11.31-.14.37-.31.06-.18.12-.46.4-.31.26.14.02.29-.06.42-.05.09-.12.2-.02.28.1.08.19-.03.24-.1.26-.36.49-.73.71-1.11.18-.35-.07-.27-.26-.21h0ZM41.02,28.26c-.28.42-.52.07-.83,0,.25-.38.52-.5.86-.29.16.1.03.21-.03.3ZM41.42,28.66c-.1.02-.26-.05-.24-.13.05-.17.16-.35.37-.38.06-.01.12,0,.17.02.05.03.09.07.12.13-.1.17-.22.32-.42.35h0ZM42.29,28.52c-.03.19-.07.36-.28.43-.03.01-.13-.09-.13-.13,0-.05.01-.09.03-.14.02-.04.05-.08.08-.11.03-.03.07-.05.12-.07.05-.02.09-.02.14-.02h.01s0,.02,0,.02h.02v.03h0Z"/>
          <path class="cls-2" d="M34,21.43c-.09-.4.09-.76.04-1.13-.02-.13.03-.34-.16-.33-.08,0-.11.02-.12.05-.03.07.05.19.04.27-.01.08.05.17.02.25-.01.03-.03.05-.06.07-.2-.01-.3-.33-.63-.13.38.26.56.64.88.95h0Z"/>
          <path class="cls-2" d="M40.11,28.98s.01-.05,0-.07c0-.02-.02-.04-.03-.05-.02-.02-.03-.03-.05-.03-.02,0-.04-.01-.06-.01s-.04,0-.06.02c-.45.17-.75.54-1.11.82-.02.01-.03.02-.03.04,0,.02,0,.05,0,.07,0,.02.02.05.04.07.03.03.07.05.11.07.03-.01.07-.03.1-.05.33-.29.65-.61,1.05-.82.02-.01.03-.03.04-.05Z"/>
          <path class="cls-2" d="M31.88,22.21c.25.02.49.15.85.02-.14-.12-.3-.17-.24-.32.01-.02.03-.05.04-.07.01-.01.02-.03.03-.05.03-.1-.1-.17-.19-.21-.02,0-.04-.01-.06,0-.02,0-.04.02-.05.03,0,.01-.01.02-.01.04,0,.01,0,.03,0,.04.06.14.06.22.04.26-.05.09-.26-.01-.37,0-.07,0-.16,0-.19.07,0,.01,0,.02-.01.04-.02.11.07.14.16.15h0Z"/>
          <path class="cls-2" d="M33.14,21.45s.03-.03.04-.05c.02-.06.02-.12,0-.19-.05-.19-.09-.38-.28-.47-.02,0-.05,0-.07,0-.02,0-.04.02-.06.04-.06.19.13.31.17.47.03.09.06.2.2.2Z"/>
          <path class="cls-2" d="M35.17,19.46s-.03-.02-.04-.02h-.05s-.07.03-.1.05c-.03.03-.05.06-.06.09,0,.02-.02.05-.02.07,0,.07.05.12.13.12.07-.03.12-.09.16-.16.01-.02.02-.05.02-.07v-.05s-.02-.03-.03-.04h0Z"/>
          <path class="cls-2" d="M34.67,18.44c-.08.21.02.46-.06.66-.03.07-.08.14-.15.18-.05.09-.1.19-.14.28.09.05.18.09.25-.04.1-.11.19-.23.26-.36.06-.12.07-.25.05-.38-.03-.13-.1-.25-.2-.33Z"/>
          <path class="cls-2" d="M34.14,19.58c-.05-.09-.13-.19-.22-.09-.01.01-.02.02-.03.03-.05.07.03.14.11.19l.21.21c.06.12.13.3.28.17.01-.01.03-.03.03-.04.05-.1-.08-.19-.16-.27-.02-.07-.03-.14-.05-.2h-.17v.02Z"/>
          <path class="cls-2" d="M10.98,30.62c-.09-.08-.16.02-.21.07-.33.31-.66.62-.98.92-.09.09-.2.28-.33.17-.26-.21-.36.03-.52.12-.45.23-.31.68-.4,1.05,0,.03-.02.07-.03.1.48-.16.78-.58,1.16-.86.49-.36.86-.88,1.29-1.33.02-.08.11-.16.03-.24h0Z"/>
          <path class="cls-2" d="M13.44,32.69c-.14-.13-.22.02-.28.1-.14.21-.27.43-.4.65-.09.09-.16.2-.22.31-.07.14-.1.29-.1.45.19-.12.33-.29.41-.49.02-.03.03-.07.05-.1.17-.22.33-.43.5-.65.03-.04.06-.08.09-.13.01-.02.01-.05,0-.08,0-.03-.02-.05-.04-.06Z"/>
          <path class="cls-2" d="M11,33.06c-.09,0-.12.07-.1.14.01.07.04.16.08.17.11.03.14-.07.14-.16,0-.07-.02-.14-.12-.14Z"/>
          <path class="cls-2" d="M16.5,43.02c-.29-.02-.63.28-.8.62-.08.15-.12.31-.11.48.02.37.22.58.6.57.31,0,.61-.27.77-.59.07-.15.11-.31.1-.47,0-.38-.21-.59-.56-.61h0Z"/>
          <path class="cls-2" d="M21.8,44.26c-.02.05-.03.1-.02.16,0,.05.02.1.05.15.02.02.03.04.06.05.02.01.05.02.07.02.03,0,.05,0,.08-.01.02-.01.05-.03.06-.05.05-.05.09-.1.11-.16.06-.16-.01-.32-.17-.49-.09.1-.18.21-.24.32h0Z"/>
        </g>
      </g>
    </g>
  </g>
</svg>